<?xml version="1.0" encoding="UTF-8" standalone="no"?>
<!-- Created with Inkscape (http://www.inkscape.org/) -->

<svg
   xmlns:dc="http://purl.org/dc/elements/1.1/"
   xmlns:cc="http://creativecommons.org/ns#"
   xmlns:rdf="http://www.w3.org/1999/02/22-rdf-syntax-ns#"
   xmlns:svg="http://www.w3.org/2000/svg"
   xmlns="http://www.w3.org/2000/svg"
   xmlns:sodipodi="http://sodipodi.sourceforge.net/DTD/sodipodi-0.dtd"
   xmlns:inkscape="http://www.inkscape.org/namespaces/inkscape"
   width="1024"
   height="1024"
   id="svg2"
   version="1.1"
   inkscape:version="0.48.5 r10040"
   sodipodi:docname="meshlab.svg"
   inkscape:export-filename="D:\Projects\houdini\img\icons\meshlab.png"
   inkscape:export-xdpi="4.2199998"
   inkscape:export-ydpi="4.2199998">
  <defs
     id="defs4" />
  <sodipodi:namedview
     id="base"
     pagecolor="#ffffff"
     bordercolor="#666666"
     borderopacity="1.0"
     inkscape:pageopacity="0.0"
     inkscape:pageshadow="2"
     inkscape:zoom="0.49497475"
     inkscape:cx="243.7625"
     inkscape:cy="450.72538"
     inkscape:document-units="px"
     inkscape:current-layer="layer1"
     showgrid="false"
     inkscape:window-width="1298"
     inkscape:window-height="745"
     inkscape:window-x="-8"
     inkscape:window-y="-8"
     inkscape:window-maximized="1"
     inkscape:snap-page="true"
     inkscape:snap-global="false"
     inkscape:snap-nodes="false" />
  <metadata
     id="metadata7">
    <rdf:RDF>
      <cc:Work
         rdf:about="">
        <dc:format>image/svg+xml</dc:format>
        <dc:type
           rdf:resource="http://purl.org/dc/dcmitype/StillImage" />
        <dc:title></dc:title>
      </cc:Work>
    </rdf:RDF>
  </metadata>
  <g
     inkscape:label="Layer 1"
     inkscape:groupmode="layer"
     id="layer1"
     transform="translate(0,-28.362183)"
     style="display:inline">
    <g
       id="g2993"
       transform="matrix(1.0335149,0,0,1.0421388,-1240.8127,-214.3878)"
       style="fill:#666666;fill-opacity:1;stroke:#000000;stroke-width:40;stroke-miterlimit:4;stroke-opacity:1;stroke-dasharray:none;display:inline">
      <path
         style="font-size:medium;font-style:normal;font-variant:normal;font-weight:normal;font-stretch:normal;text-indent:0;text-align:start;text-decoration:none;line-height:normal;letter-spacing:normal;word-spacing:normal;text-transform:none;direction:ltr;block-progression:tb;writing-mode:lr-tb;text-anchor:start;baseline-shift:baseline;color:#000000;fill:#000000;fill-opacity:1;fill-rule:nonzero;stroke:none;stroke-width:40;marker:none;visibility:visible;display:inline;overflow:visible;enable-background:accumulate;font-family:Sans;-inkscape-font-specification:Sans"
         d="m 1695.0457,238.37239 c -267.439,0 -484.6875,217.24846 -484.6875,484.6875 0,267.43905 217.2485,484.65621 484.6875,484.65621 267.439,0 484.6562,-217.21716 484.6562,-484.65621 0,-267.43904 -217.2172,-484.6875 -484.6562,-484.6875 z m 0,40 c 245.8214,0 444.6562,198.86606 444.6562,444.6875 0,245.82145 -198.8348,444.65621 -444.6562,444.65621 -245.8215,0 -444.6875,-198.83476 -444.6875,-444.65621 0,-245.82144 198.866,-444.6875 444.6875,-444.6875 z"
         id="path3018"
         inkscape:connector-curvature="0" />
    </g>
    <path
       transform="translate(10.101525,26.341878)"
       d="m 789.93925,520.94403 a 252.53813,151.52289 0 1 1 -505.07626,0 252.53813,151.52289 0 1 1 505.07626,0 z"
       sodipodi:ry="151.52289"
       sodipodi:rx="252.53813"
       sodipodi:cy="520.94403"
       sodipodi:cx="537.40112"
       id="path3832"
       style="fill:#ffffff;fill-opacity:1;stroke:none;display:inline"
       sodipodi:type="arc" />
    <path
       sodipodi:type="arc"
       style="fill:#9e9e9e;fill-opacity:1;stroke:none;display:inline"
       id="path3002"
       sodipodi:cx="507.09659"
       sodipodi:cy="510.8425"
       sodipodi:rx="446.48743"
       sodipodi:ry="446.48743"
       d="m 953.58401,510.8425 a 446.48743,446.48743 0 1 1 -892.974849,0 446.48743,446.48743 0 1 1 892.974849,0 z"
       transform="translate(0,28.362183)" />
    <path
       sodipodi:type="arc"
       style="fill:#ffffff;fill-opacity:1;stroke:none;display:inline"
       id="path3776"
       sodipodi:cx="246.47722"
       sodipodi:cy="298.71048"
       sodipodi:rx="44.446712"
       sodipodi:ry="42.426407"
       d="m 290.92393,298.71048 a 44.446712,42.426407 0 1 1 -88.89342,0 44.446712,42.426407 0 1 1 88.89342,0 z"
       transform="matrix(1.3523008,0.8066352,-1.5164095,2.8597061,325.6093,-742.59358)" />
    <path
       transform="matrix(3.5982609,1.5234641,-4.3718886,2.5116828,925.00816,-555.70819)"
       d="m 290.92393,298.71048 a 44.446712,42.426407 0 1 1 -88.89342,0 44.446712,42.426407 0 1 1 88.89342,0 z"
       sodipodi:ry="42.426407"
       sodipodi:rx="44.446712"
       sodipodi:cy="298.71048"
       sodipodi:cx="246.47722"
       id="path3774"
       style="fill:#ffffff;fill-opacity:1;stroke:none;display:inline"
       sodipodi:type="arc" />
    <path
       sodipodi:type="arc"
       style="fill:#ffffff;fill-opacity:1;stroke:none;display:inline"
       id="path3772"
       sodipodi:cx="246.47722"
       sodipodi:cy="298.71048"
       sodipodi:rx="44.446712"
       sodipodi:ry="42.426407"
       d="m 290.92393,298.71048 a 44.446712,42.426407 0 1 1 -88.89342,0 44.446712,42.426407 0 1 1 88.89342,0 z"
       transform="matrix(1.5714959,-0.09888519,0.36534129,3.2162,-351.12515,-353.15071)" />
    <path
       style="fill:#d2d2d2;display:inline"
       d="M 476.37587,981.7127 C 335.94192,972.78709 204.23119,895.6789 123.44806,781.03019 73.450213,713.28808 52.339626,628.67093 38.35507,547.89608 25.122924,395.74025 94.851326,243.282 211.21398,146.49377 309.92372,60.382082 446.44892,25.136362 575.07181,44.632254 663.03129,56.026 749.05065,90.911213 816.04493,149.6858 c -22.86255,-6.93389 -45.94173,-44.49482 -72.33956,-37.39154 -70.53567,35.63972 -147.06023,57.8564 -225.09892,68.87059 -44.92555,15.63022 -82.04923,45.42523 -112.31712,81.73356 -37.2066,37.17167 -82.06739,65.17 -122.77769,97.78491 -46.10033,51.38221 -51.75526,124.38339 -83.81777,183.75547 -28.3611,64.25418 -65.41916,124.05406 -105.104747,181.80168 83.446887,168.84806 277.771607,273.01092 464.382107,250.32692 94.94246,-9.0242 186.44028,-50.24398 257.74526,-112.87184 4.08361,12.38095 -60.50164,46.01886 -82.3775,61.76051 -78.08645,44.13109 -169.05801,60.17628 -257.96312,56.25664 z M 96.517309,567.95447 c 16.488361,-5.05271 -30.431294,5.55585 -14.172753,1.01421 23.334124,-2.16479 33.716314,-29.77909 42.662744,-42.19462 2.57458,-9.88585 8.73614,-20.26945 11.97822,-31.01364 17.39632,-35.63492 -20.80823,-44.20753 -30.06995,-15.16812 -6.61692,11.78709 -14.351175,19.01223 -16.406808,30.47014 -7.012829,15.30878 -11.331921,28.64446 -13.517115,47.52256 -2.34139,17.26526 7.857621,26.29405 19.525662,9.36947 z M 133.95818,456.02056 c 23.52147,-3.73261 -25.41139,1.05712 -20.37416,12.46835 6.26912,-4.87412 12.27494,-10.8796 20.37416,-12.46835 z m 52.8978,-122.84349 c 9.86134,-11.73476 21.11567,-17.40609 33.22146,-30.53966 14.90816,-17.65767 26.07536,-31.8885 39.52471,-49.43689 9.49952,-15.43977 54.63437,-83.29477 4.00301,-85.6022 -30.45846,-4.17395 39.36868,11.54007 19.86136,24.89375 -5.86965,-36.84835 -50.58338,-12.5835 -49.73225,-18.05508 -31.42646,17.98574 -64.49559,40.70705 -80.28692,77.29217 -7.8637,18.74412 -4.54523,35.81869 -9.66207,54.89347 11.75016,15.42132 15.35282,44.54632 43.0707,26.55444 z m 395.94158,309.00559 c 44.10038,-0.97803 13.59711,2.78233 0,0 z m -41.01309,-2.52976 c 25.58193,-1.27709 1.09552,3.56768 0,0 z m 91.91043,-7.82062 c 50.05642,-40.70923 82.55561,-105.70966 78.35556,-170.73302 -8.04197,-18.99955 -89.27597,-3.52565 -59.78075,-18.69629 29.3706,1.67896 81.82732,-1.87611 76.08224,40.69258 -5.84659,53.61185 -26.92837,110.6448 -70.52284,144.49927 -3.54055,2.16091 -49.36768,24.40525 -24.13421,4.23746 z m -118.26469,5.39096 c 13.04296,-4.52424 1.88916,5.45121 0,0 z m -15.86411,-2.64933 c 13.04314,-4.52442 1.8891,5.45129 0,0 z m 475.41575,-39.2431 c 1.12999,-11.51149 2.44246,9.91584 0,0 z M 356.30474,586.0369 c -6.13958,-19.33731 46.17367,-58.63538 17.3007,-18.04459 -9.35548,3.66537 -5.11925,27.83028 -17.3007,18.04459 z m 621.32113,-9.25135 c 1.12997,-11.51148 2.4425,9.91584 0,0 z m 3.04866,-20.0907 c 1.77408,-21.03792 1.29997,19.72963 0,0 z M 488.4598,528.21462 c -0.0783,-23.35936 12.36444,4.25889 0,0 z m 10.90567,-4.63631 c 0.51377,-21.46498 2.01156,16.36453 0,0 z m 7.4166,-0.15636 c 6.89289,-18.10429 4.65223,21.33177 0,0 z m -27.22138,2.35781 c 1.75233,-21.62422 13.33979,-4.60714 0,0 z m 36.91613,0.005 c -8.06447,-22.93518 10.23682,4.30768 0,0 z m 7.64475,-5.18801 c -2.21221,-25.48163 9.68864,19.65262 0,0 z m 459.42987,-11.59002 c 1.46903,-35.03848 1.38052,35.11642 0,0 z m -510.60308,8.06841 c 13.54576,-14.10366 -6.60629,15.5033 0,0 z m 59.24909,-1.36247 c -8.6767,-20.14686 15.43529,17.85177 0,0 z M 464.47779,511.656 c 17.05292,-18.84332 -5.80827,17.18092 0,0 z m 74.64608,-2.64932 c -5.38267,-19.50751 17.19581,18.95915 0,0 z m -82.57813,0.73538 c 6.93832,-17.10376 16.42108,-2.92516 0,0 z m 88.51816,-6.09611 c -8.88748,-16.9868 19.64999,14.14251 0,0 z m 3.68517,-9.64391 c -4.50775,-10.3171 20.54099,13.1649 0,0 z m 4.30329,-6.18956 c -12.36581,-10.19821 24.8119,7.83409 0,0 z m 2.64402,-7.94798 c -9.96151,-10.70064 24.58072,7.55561 0,0 z m -1.32201,-10.59728 c 11.42794,-8.02369 15.15567,10.21386 0,0 z m 426.30016,-7.94797 c 1.77408,-21.03793 1.29997,19.72963 0,0 z M 447.1981,461.02389 c 10.24809,-39.10836 23.45783,20.17268 0,0 z m 11.99167,-5.00323 c -9.73581,-10.66179 -10.14353,10.36397 0,0 z m 96.43526,5.41435 c 12.13888,-5.75156 10.89592,9.62876 0,0 z m 422.20956,-21.31029 c 1.83217,-15.43545 1.83217,15.43539 0,0 z m -2.85274,-16.99983 c 1.13,-11.51147 2.44245,9.91585 0,0 z m -28.07964,-91.79867 c -2.66909,-13.84118 8.35988,10.29881 0,0 z m -20.01673,-40.22593 c -13.88768,-22.21252 -57.35132,-91.23967 -19.67009,-37.39542 6.33674,6.35135 38.84401,68.23464 19.67009,37.39542 z m -49.3274,-73.51871 c -5.7027,-16.72686 17.30739,17.42498 0,0 z m -6.85778,-11.92196 c -1.48941,-12.51483 10.42741,13.11562 0,0 z m -42.67014,-41.06451 c 0.69779,-9.71596 7.93635,8.92501 0,0 z m -6.61006,-7.86482 c 8.08034,-5.85846 11.97083,9.25681 0,0 z"
       id="path3007"
       inkscape:connector-curvature="0"
       transform="translate(0,28.362183)" />
    <path
       style="fill:#b9b9b9;display:inline"
       d="M 479.01988,973.09461 C 318.98728,962.25225 166.25959,864.82617 94.589123,720.28169 162.37024,625.16238 214.23544,519.45212 249.82355,408.21476 c 14.03061,-41.01697 47.77479,-68.60758 83.31487,-90.4629 46.05507,-31.67898 83.946,-73.09432 124.16912,-111.18084 39.14704,-27.76237 84.71796,-38.85266 131.67347,-44.31462 56.33463,-12.57183 110.23317,-33.99474 161.9778,-59.32553 18.55678,10.10065 48.01138,24.94856 55.24212,39.05559 -14.19884,7.5586 -47.81627,31.83697 -23.00035,3.40316 -15.31759,5.79462 -73.73372,69.73493 -45.05628,29.36712 -23.34596,6.61607 -67.87156,49.92483 -64.74359,41.00623 -11.81818,-1.22658 23.20421,-38.75107 -2.15789,-16.28687 -14.15908,12.22854 -40.92307,38.67458 -49.85735,39.01839 14.3885,-13.46503 66.01163,-60.75735 24.57423,-27.68705 -18.13399,15.07854 -44.29634,41.17637 -15.43796,10.57114 13.38273,-22.57376 -48.80311,38.38535 -10.31739,-4.1124 -10.7846,2.41661 -67.08313,57.14885 -35.43921,18.30542 22.14623,-21.79827 -45.58504,30.33774 -61.43864,38.9571 13.21707,-11.90151 19.94059,-39.71335 -3.95214,-13.10294 -5.69124,8.24446 -53.7847,58.94768 -35.23276,38.28694 19.97551,-24.19193 -35.40848,23.98159 -6.37273,-6.0315 25.34366,-24.96675 10.72323,-20.84218 -6.4849,0.82136 -11.85491,9.66351 -18.65066,26.25635 -0.98661,17.57538 -13.87106,11.16959 -48.83548,33.72312 -10.19372,15.24964 32.8317,-24.56626 48.58928,-35.5497 23.47578,0.86542 10.6756,-13.2167 74.16628,-51.05563 65.54414,-43.25402 -25.90696,32.75967 -57.38074,49.62255 -96.32216,66.61578 -46.4954,24.16103 -88.40499,55.97729 -132.47128,84.0172 -59.18947,43.38854 -87.88124,118.12461 -87.86773,189.73857 7.98425,75.55692 87.43148,116.07125 155.09118,125.32691 67.82929,8.95719 137.74013,1.83939 204.27223,-8.688 24.69323,-5.92859 50.38938,-19.8017 62.34692,-5.49535 4.80098,-23.81291 25.26689,-11.66588 43.422,-29.07948 11.71262,-6.84458 14.15133,34.1998 15.68281,-1.12984 27.59422,-21.85533 66.83935,-32.82135 97.14422,-53.88036 22.23969,-6.14439 60.2028,-60.28226 50.82219,-7.11218 -2.14683,73.00621 -5.40688,148.96195 -40.78006,214.6412 -32.5144,16.50868 -63.9468,47.89738 -100.41867,63.23559 -74.15835,38.46394 -157.96429,53.58704 -241.02533,49.96559 z M 423.34779,336.60736 c 14.48306,-19.73311 16.53164,-18.39814 5.30407,2.18285 11.63873,-13.57974 52.15423,-59.91182 48.80483,-58.89935 -12.83366,10.95366 -74.26158,58.88231 -54.1089,56.7165 z m 19.97788,-25.63504 c 14.45452,-14.6243 -8.31144,14.23197 0,0 z m 78.10721,-4.15025 c 4.14255,-13.90108 -14.10665,11.99829 0,0 z M 755.31969,162.61022 c 8.06403,-14.46431 -14.25331,14.6814 0,0 z m 87.25257,675.57743 c 38.29135,-38.48191 0.0858,5.18665 -18.37577,19.86993 5.50841,-7.17362 12.11497,-13.37926 18.37577,-19.86993 z m 21.15213,-22.85258 c 12.46183,-17.30672 26.63422,-19.95327 0,0 z m 18.50813,-22.18592 c 14.4545,-14.62428 -8.31142,14.23199 0,0 z m 7.93204,-10.59728 c 14.45452,-14.6243 -8.31139,14.23197 0,0 z M 556.3574,636.29403 c 26.57147,-1.54351 4.67565,3.52839 0,0 z m -33.08105,-2.59991 c 25.58192,-1.27709 1.09552,3.56768 0,0 z m -17.15528,-2.58362 c 18.81636,-3.01433 -1.83183,4.70417 0,0 z m -14.48702,-2.49537 c 13.04318,-4.52446 1.88909,5.45132 0,0 z m -10.57607,-2.64933 c 13.04302,-4.52427 1.88915,5.45125 0,0 z m -10.57607,-2.64931 c 13.04293,-4.52423 1.8892,5.4512 0,0 z m -33.27054,-9.48178 c -49.35238,-21.0571 60.72966,18.37734 0,0 z m 241.14124,-10.35148 c 28.83349,-42.30655 62.22927,-101.43384 43.83697,-152.28477 -13.52474,-22.10599 -77.09483,-5.24577 -72.87952,-22.11185 31.97297,-0.92193 81.70921,3.63897 95.78057,34.83287 -1.67147,58.41151 -22.87103,125.57238 -77.33782,153.37093 3.05639,-4.95764 7.03105,-9.23606 10.5998,-13.80718 z m -303.7714,-13.67575 c -27.25134,-8.33796 -47.37597,-16.31843 -16.40559,-37.80809 11.01936,-22.61643 33.95288,-19.61483 10.47697,1.69356 -40.67686,35.69874 33.75192,36.53078 50.26497,52.63325 -15.184,-4.28634 -29.62595,-10.87788 -44.33635,-16.51872 z m 108.70507,-36.23607 c -9.4516,-18.56515 18.34899,-44.92158 6.98891,-7.0156 0.0575,2.31654 -2.64195,10.84022 -6.98891,7.0156 z m 11.20646,-11.44563 c 1.07768,-29.01087 11.79217,-41.85113 9.62098,-1.4402 5.7895,18.13262 -16.88853,21.94897 -9.62098,1.4402 z m 13.89423,9.71827 c -12.91006,-47.19934 24.11072,-10.87077 2.42677,3.35834 l -2.42677,-3.35834 z m 11.98225,-8.39361 c -15.44749,-38.64807 14.02073,-13.69866 8.94342,10.0842 -5.47107,0.94286 -7.51584,-6.5888 -8.94342,-10.0842 z m -54.11702,5.29864 c 1.5379,-25.30398 24.81617,-36.53988 9.45718,-3.96524 -0.4825,2.98589 -6.85406,9.86538 -9.45718,3.96524 z m 64.73621,-12.05683 c -17.21529,-42.93314 28.88644,15.54155 4.84015,10.21781 l -2.27591,-4.01474 -2.56424,-6.20307 0,0 z m -75.80753,6.02637 c 1.52837,-22.67928 31.1575,-36.41958 10.60964,-5.21117 1.5527,4.51979 -8.42392,11.38259 -10.60964,5.21117 z m 93.11688,-1.91751 c -18.06765,-21.30003 -11.63866,-38.2754 6.48092,-6.32298 5.43773,4.53259 -3.65757,11.65675 -6.48092,6.32298 z m 431.97214,-1.76622 c 1.12992,-11.51149 2.44245,9.91584 0,0 z m -538.30453,-4.25683 c 9.72456,-29.68929 36.89826,-35.34774 10.90136,-2.71088 -1.47054,2.90096 -8.46954,8.42551 -10.90136,2.71088 z m 110.93706,-11.87024 c -25.30165,-48.02394 41.46024,35.52336 0,0 z m -119.82854,3.05123 c 8.45416,-18.37942 43.17795,-46.96761 6.88648,-17.89991 -41.01359,21.37426 46.38761,-46.71616 16.58537,-2.87678 -3.26348,6.61833 -14.8473,26.2423 -23.47185,20.77669 z M 561.21747,513.8847 c -32.04792,-44.6202 54.21645,33.81162 0,0 z m -84.86825,-0.28236 c -19.02259,-6.67673 13.13929,1.5902 0,0 z m 32.02722,-2.16455 c 3.65963,-8.42049 7.16094,7.01689 0,0 z m 59.77969,-7.83747 c -35.70804,-32.63802 51.29289,23.33166 0,0 l 0,0 z m -90.48241,3.39276 c -5.59247,-10.91401 17.88781,9.3785 0,0 z m 52.9045,2.39328 c 5.17497,-7.68762 11.82869,4.55008 0,0 z m 43.62629,-16.39806 c -39.95443,-30.7421 56.18671,17.33944 0,0 l 0,0 z m -25.44866,3.43665 c -9.07462,-19.96201 7.46346,-3.42655 0,0 z m -102.78617,-7.76153 c 14.467,-12.73069 13.84664,-2.3541 0,0 z m 132.86187,-6.03812 c -43.54925,-22.19063 47.61071,2.07043 5.96434,1.75353 l -5.96434,-1.75353 0,0 z m -27.10118,-6.07028 c 20.63189,-9.50568 -8.1524,8.87554 0,0 z m 21.15213,-7.94797 c -30.89357,-17.98952 63.56847,-0.21897 9.05989,1.48091 l -9.05989,-1.48091 z m 71.59721,-1.10389 c 1.12996,-11.51149 2.44248,9.91585 0,0 z m 335.79019,0 c 1.12992,-11.51149 2.44245,9.91585 0,0 z m -533.14944,-1.26783 c -11.67755,-14.12321 -0.72864,-27.46287 5.07399,-5.67649 8.03748,-11.83437 15.34753,-31.91865 12.41572,-3.80205 -1.46364,3.4642 -17.13491,17.88664 -17.48971,9.47854 z m 115.18597,-10.87489 c 4.72287,-15.3862 64.43332,2.55672 14.56878,2.67842 l -6.04264,-0.44767 -8.52614,-2.23075 0,0 z m 82.17328,-3.75322 c 1.12996,-11.51149 2.44248,9.91585 0,0 z m -90.10534,-4.19475 c 41.50075,-8.23353 10.49384,4.96118 0,0 z M 947.1104,328.35421 c -12.03146,-44.02061 -55.96191,-59.07644 -96.85778,-62.3972 -37.68328,-3.7341 -75.60786,-3.3282 -113.42006,-4.64631 11.56225,-15.45649 71.56537,-73.09567 35.8589,-27.50027 -21.92494,43.61289 26.00616,-29.5403 41.13977,-33.71014 5.85736,-1.1488 -47.40345,48.45031 -9.80775,19.10257 46.20597,-31.11525 -52.99924,55.2593 2.8165,18.24536 21.60589,-0.0895 32.20132,-28.55828 18.49029,-12.26028 -3.29608,-0.45455 -41.14347,23.11744 -8.33247,-4.64427 14.80772,-7.04429 74.68732,-43.68338 32.69422,-15.16246 -31.22899,27.13147 4.51366,6.73264 18.0379,-5.49916 -21.95831,19.77598 19.10297,-4.95116 -6.7033,13.41542 -29.34665,20.9979 38.76913,-22.30656 14.35618,13.99899 37.94219,8.86628 53.56354,69.87609 74.46743,103.54578 l -2.73983,-2.48803 0,0 z M 527.76168,309.89045 c 11.50326,-18.67701 68.50445,-48.07195 23.04827,-14.31795 -3.77455,2.56846 -34.0397,31.32354 -23.04827,14.31795 z m 26.61269,-6.32841 c 21.49661,-27.75616 25.42693,-15.11964 1.05912,1.14336 l -1.05912,-1.14336 z m -43.4502,-7.69261 c 24.23994,-28.38323 15.45048,-4.61878 -4.81204,6.39223 1.60401,-2.13075 3.20802,-4.26149 4.81204,-6.39223 z m 73.94159,-10.06568 c 14.45858,-23.87939 46.93666,-46.25773 12.80889,-10.53108 -3.22171,2.52138 -10.24859,11.98081 -12.80889,10.53108 z m 29.89409,-18.2366 c 17.1994,-19.05718 34.23866,-24.33216 4.84621,-1.62379 -12.71129,12.96819 -35.0717,31.16556 -4.84621,1.62379 z m 19.09139,-0.33513 c 22.50973,-28.0398 25.87088,-11.41879 8.43506,7.98552 -35.93313,17.00434 -29.13185,10.23094 -8.43506,-7.98552 z m 24.7106,3.0725 c 19.09301,-11.68525 48.45485,-32.61043 17.47969,-5.28709 -0.66612,2.90323 -34.43474,19.75519 -17.47969,5.28709 z m -112.11951,1.5267 c 17.39938,-22.65304 29.81344,-19.34569 0,0 z m 15.8641,-3.24807 c 14.45451,-14.6243 -8.3114,14.23197 0,0 z m 121.62479,-1.05022 c 8.53901,-20.46587 62.65277,-39.33966 24.74827,-9.2234 -4.76906,3.03951 -20.24593,17.49547 -24.74827,9.2234 z M 649.559,266.20744 c 16.81175,-18.12203 21.10707,-8.68172 0,0 z m 67.57677,-7.55926 c 7.46169,-13.11329 65.31729,-65.31183 32.89024,-24.67752 -10.08208,3.47083 -31.19922,47.77964 -32.89024,24.67752 z m 33.03821,-27.58646 c 26.67867,-27.64173 -36.13069,29.78432 0,0 z m -160.08393,19.18349 c 24.21671,-25.59653 -13.92101,25.79198 0,0 z m 88.55314,3.06134 c 23.14761,-28.1205 16.1977,-7.4341 0,0 z m 114.29079,-11.4252 c 24.81261,-20.17106 -14.0348,15.21322 0,0 z M 642.225,236.5827 c 24.81272,-20.17115 -14.03482,15.21326 0,0 z m 40.20592,1.82227 c 34.78274,-27.03799 -0.69687,6.59415 0,0 z m -19.65184,-6.91235 c 14.45451,-14.62428 -8.31141,14.23199 0,0 z m 60.10732,0.99592 c 15.43904,-8.55102 -7.02203,9.11149 0,0 z m -13.83702,-12.91787 c 19.73131,-19.26735 -13.52622,18.94876 0,0 z m 56.1413,-0.32876 c 15.43905,-8.55099 -7.02206,9.1115 0,0 z m 57.11076,-5.86767 c 20.27635,-35.93387 25.75648,-11.05646 0,0 z m -113.25206,-7.0502 c 17.9381,-17.5243 -10.188,17.04238 0,0 z m 48.91432,-6.6233 c 14.45452,-14.62428 -8.31141,14.23199 0,0 z m 50.23633,-5.29865 c 14.45452,-14.62429 -8.3114,14.23197 0,0 z M 763.1509,178.94781 c 11.3767,-14.24565 59.86252,-44.9895 19.70694,-13.48625 -3.42898,2.15714 -39.8976,34.59617 -19.70694,13.48625 z m 12.63451,2.20767 c 21.67681,-26.74452 12.40728,-9.33836 -2.55154,4.9721 l 2.55154,-4.9721 0,0 z m 21.83854,2.64932 c 14.45452,-14.62428 -8.31141,14.23199 0,0 z m 15.86411,-7.94797 c 18.05344,-13.92119 -5.9857,13.25688 0,0 z m 34.03496,-3.31165 c -8.13298,-12.15237 16.08812,15.35887 0,0 z m -39.32299,-1.987 c 14.45452,-14.62429 -8.3114,14.23198 0,0 z m 18.50813,2.26514 c 5.43627,-16.63607 29.76472,-5.57803 0,0 z M 809.85844,161.28 c 27.41535,-32.28288 -11.2141,4.38519 -6.48892,7.27264 2.16297,-2.42422 4.32595,-4.84843 6.48892,-7.27264 z m 11.56166,2.65487 c 17.70021,-18.40112 -3.81921,17.21857 0,0 l 0,0 z m -13.95451,-13.38012 c 22.44379,-16.19452 -19.45627,18.70352 0,0 z"
       id="path3005"
       inkscape:connector-curvature="0"
       transform="translate(0,28.362183)" />
    <path
       style="fill:#8f8f8f;display:inline"
       d="M 387.08401,750.88132 C 319.601,741.11879 240.4591,700.80268 232.4624,625.31045 232.14135,550.29972 264.38909,472.55662 328.11255,429.6757 389.86957,389.9418 450.2514,346.82564 518.95872,319.47733 c 22.95289,-2.85578 46.99264,-26.43155 65.75539,-33.13069 5.6544,14.71859 18.14528,-29.94882 11.57878,0.44008 17.24925,-12.52464 -4.62472,20.8396 18.74926,-4.29463 7.83892,-9.43649 -4.30817,11.02208 19.66895,-2.97625 28.60535,-25.17437 9.05747,-4.34725 -2.79267,12.72194 18.30946,-12.90172 54.04138,-34.72351 39.30722,-13.45602 14.89606,-5.94291 50.40343,-26.07836 47.46121,-14.1726 37.72669,-6.58547 83.87579,1.03324 125.15753,0.47831 39.70506,4.57361 88.07074,13.36192 100.67695,58.14802 15.09405,17.27538 -33.67926,45.88784 -43.38465,14.21179 -86.31711,-53.8614 -193.56289,-36.6067 -287.51434,-16.75071 -29.36324,-8.27653 -50.47091,13.84266 -87.58725,20.06467 -25.00849,0.0467 -45.82619,14.2128 -54.46718,18.18679 18.68328,-31.78683 -31.32949,32.06762 -11.85576,-1.61256 -11.59977,9.53344 -39.17335,42.31279 -23.19034,11.18673 -14.14213,20.61844 -30.77678,33.25484 -7.98942,2.05989 -23.77352,34.1 -72.4922,52.98656 -105.34304,82.83728 -51.86371,42.19453 -85.09093,123.31474 -43.44238,183.30161 27.72556,40.50262 77.76002,54.54995 121.71809,69.72117 32.53075,15.74876 82.86453,-7.07738 105.10517,23.12325 -0.282,-38.85297 47.64665,-2.49576 46.86988,-3.31165 -10.34549,-34.37132 42.30263,-16.07066 35.64253,13.52383 -27.12753,10.53284 -77.10203,12.22447 -113.25297,13.89054 -29.56109,0.53799 -59.39121,1.283 -88.74567,-2.7868 z M 581.81023,295.6325 c -0.0456,-15.21558 -36.48908,26.24267 -3.9162,0.93685 l 3.9162,-0.93685 0,0 z m 6.93637,434.26406 c -14.66542,-43.24958 43.02162,-32.69468 42.49159,2.31816 -5.68011,-23.03864 -5.03332,-60.28296 13.76156,-15.47497 7.84175,23.08205 -34.18413,17.44026 -55.60977,19.15064 l -0.64338,-5.99383 0,0 z m 267.25449,-2.75972 c 1.12997,-11.5115 2.44247,9.91585 0,0 z M 652.55217,711.39441 c -14.08828,-74.951 31.89709,39.19566 0,0 z m 56.86306,7.57369 c 7.52582,-12.8348 0.53442,13.25862 0,0 z M 673.1417,702.34251 c -23.89026,-46.80495 50.2777,-11.76828 24.60976,5.05281 -8.88802,4.09232 -23.73589,11.90473 -24.60976,-5.05281 z m 37.36543,0.72965 c -15.87713,-23.61474 -11.32896,-52.02765 20.77349,-27.53462 39.20483,22.73388 -31.92702,-33.67041 11.51339,-12.66889 -11.6477,-43.70401 71.77046,18.14911 28.20031,-22.72496 4.2737,-13.2194 50.19446,-29.89765 66.51608,-50.13422 39.01566,-35.03039 23.64951,55.64381 -11.90731,53.58481 -35.37814,24.6451 -77.48015,37.88558 -112.66803,62.12721 l -1.8653,2.92769 -0.56263,-5.57702 0,0 z m 148.34669,-9.27263 c 1.9826,-14.64707 1.98253,14.64702 0,0 z M 584.11957,638.91549 c 31.90784,-1.3287 6.55047,3.19175 0,0 z M 544.5144,636.5631 c 13.0431,-4.52441 1.88911,5.4513 0,0 z m 142.06084,-31.5159 c 14.4545,-14.62428 -8.31142,14.23198 0,0 z m -200.22923,-2.92531 c 13.04297,-4.52424 1.88918,5.45123 0,0 z m 23.79615,0 c 13.04295,-4.52421 1.88919,5.45122 0,0 z m 197.58521,-18.26928 c 14.45452,-14.62428 -8.31141,14.23199 0,0 z m -370.08888,-20.1267 c 1.31023,-18.12748 43.15889,-56.72662 35.97608,-28.3057 -8.55194,1.07771 -37.31721,57.27121 -35.97608,28.3057 z m 143.36442,1.15151 c -15.51005,-27.83787 21.78729,0.80329 0,0 z m 10.4092,-2.88172 c 20.11314,-22.41016 13.02746,20.89678 0,0 z m 16.97486,0.44565 c -8.14315,-21.64795 31.17938,-2.26093 2.51873,2.95966 l -2.51873,-2.95966 0,0 z m 14.25921,-3.44831 c 14.3383,-24.59563 16.04767,21.55785 0,0 z m -59.80767,-1.50678 c 2.36505,-28.06005 24.62669,16.92616 0,0 z m 74.93807,-1.32732 c 5.92911,-36.1326 24.53035,20.56175 0,0 z m -86.35119,-2.61364 c -8.93722,-24.4893 23.87086,4.58636 0,0 z m 100.60139,-4.9036 c 2.78279,-28.95591 23.98383,13.37796 0,0 z m -115.04249,-4.60804 c 7.64277,-17.88546 -26.70767,-1.6059 -6.48684,-25.63313 -9.80614,-17.20363 33.88026,40.61434 6.48684,25.63313 z m 126.4211,-7.20654 c 0.0698,-20.22287 25.81579,14.76413 0,0 z m 12.5078,-8.14346 c 0.27727,-33.41165 26.08139,15.96407 0,0 z m 159.50787,-1.12916 c 24.00549,-45.67417 3.48036,-100.46608 -53.59321,-97.03928 -18.60066,4.86576 -63.66354,-12.91238 -19.91236,-11.64289 35.61333,-0.25663 100.93908,12.29686 85.26481,61.62464 -1.26169,9.48625 -6.83841,55.95802 -11.75924,47.05753 z M 562.1063,519.60653 c -21.75655,-23.75605 26.35883,24.40895 0,0 z m -145.22082,-0.25172 c 19.62868,-40.17025 14.30632,12.63625 0,0 z m 169.79544,-2.64574 c -8.26563,-27.44593 22.77357,3.55259 0,0 z m -93.11894,-5.71285 c -6.48315,-18.8043 12.57107,19.01203 0,0 z m 16.32264,-0.77106 c 4.03769,-17.45086 8.29614,12.78319 0,0 z m 84.3177,-7.02586 c -10.65848,-26.28517 25.98455,-1.12027 0,0 z m -169.38478,-2.29655 c 15.96819,-22.09526 37.68935,-12.46976 13.93574,-1.52619 -4.75885,-2.96913 -9.77524,4.06092 -13.93574,1.52619 z m 171.86112,-17.72443 c 13.03085,-24.32338 11.43058,23.34156 0,0 z m -144.32476,0.95854 c 3.17105,-8.71354 14.92134,2.17633 0,0 z m -12.94342,-4.85009 c 30.30978,-4.62579 -22.9264,-11.58461 0.38842,-29.74369 11.08599,47.95702 27.24659,-9.77095 31.00606,-8.53723 7.25197,17.74855 -13.479,42.12523 -31.39448,38.28092 z m 159.26507,-12.00438 c 15.5239,-22.40959 8.76531,23.90001 0,0 z m 45.80416,-7.7272 c 1.12996,-11.51149 2.44248,9.91585 0,0 z m -45.15703,-5.51941 c -7.36932,-22.86036 25.35284,10.60975 0,0 z m -30.4062,-9.10016 c -23.91567,-2.9889 38.05977,-11.92992 23.17263,-0.44017 -7.65487,1.12235 -15.48666,1.56878 -23.17263,0.44017 z m -19.83013,-4.23183 c 16.22141,-14.03149 20.68221,4.83898 0,0 z M 927.1808,356.01082 c 14.45452,-14.62431 -8.3114,14.23197 0,0 z M 416.88548,338.79021 c 5.75297,-15.65807 9.22777,4.99227 0,0 z m 64.55811,-12.58428 c 23.6662,-17.6206 17.2982,-3.70698 0,0 z m -48.51278,-10.12827 c 23.41346,-19.08534 -9.88788,20.46909 0,0 z m 86.30347,-5.02694 c -8.27161,-14.62081 20.12659,9.5355 0,0 z m -53.28668,-1.16343 c -17.26523,-3.48321 39.00334,-23.65689 6.8541,-0.38648 -1.7303,-5.93067 -4.3948,6.32764 -6.8541,0.38648 z m 27.61438,-2.73259 c 5.66815,-14.21048 3.80749,9.16728 0,0 z m 50.23633,-6.77968 c 14.45453,-14.62427 -8.31144,14.232 0,0 z m -89.89659,0.26123 c 15.50096,-25.12099 24.31184,4.59876 0,0 z M 557.0184,297.7257 c 14.45452,-14.62428 -8.31142,14.23199 0,0 z m -46.15738,-1.1416 c -0.15262,-13.1381 7.56179,8.3099 0,0 z m -1.43493,-9.45569 c 30.04273,-28.35241 -24.17828,28.03665 0,0 z m 25.25774,6.84959 c 0.5055,-14.28907 11.92846,6.11529 0,0 z m -41.12185,-5.36856 c 5.68716,-9.60353 7.36118,5.8614 0,0 z m -5.28804,-9.429 c 25.00788,-23.94674 -18.81247,23.53682 0,0 z m 45.95151,0.31945 c 5.96617,-18.90451 1.32103,10.80507 0,0 z m 19.26696,-0.12584 c 6.16623,-12.83761 11.41903,0.90978 2.56982,-0.19361 l 0.1999,3.97398 -2.76975,-3.78029 3e-5,-8e-5 z m 15.60922,-3.86748 c 11.81631,-22.63268 2.72917,7.2146 0,0 z M 526.75177,270.134 c 0.50552,-14.28906 11.92844,6.11533 0,0 z m 70.2926,-4.64182 c 11.40243,-10.92729 -2.99717,12.29445 0,0 z m 20.78642,1.92266 c 5.68719,-9.60351 7.36117,5.86144 0,0 z m -78.17163,-3.08637 c 4.87655,-9.31774 17.1932,-1.8277 0,0 z m 42.03673,-0.92743 c 5.02765,-11.22221 2.83308,13.63473 0,0 z m 120.74346,-0.11654 c 14.45451,-14.62429 -8.31142,14.23197 0,0 z m -134.84489,-1.23146 c 20.12946,-28.8774 11.60294,0.7891 0,0 z m 97.82864,1.72712 c 21.84261,-27.58868 13.11394,1.71335 0,0 z m -113.69273,-6.51113 c 7.09036,-11.6834 13.30151,-0.31455 0,0 z m 33.23536,-0.30765 c 7.05563,-20.30187 5.59795,6.47787 0,0 z m 73.38474,0.60491 c 17.86263,-10.68794 14.47905,-2.25992 0,0 z m 83.74913,-4.87908 c 25.00788,-23.94672 -18.81247,23.5368 0,0 z m -126.91282,1.9325 c 7.09042,-11.68343 13.30147,-0.3145 0,0 z m -48.77476,-5.68021 c 0.5055,-14.2891 11.92847,6.11534 0,0 z m 219.49902,-2.57542 c 1.54967,-8.81677 15.63946,-6.08441 19.58267,-8.77529 -5.09744,1.82376 -14.16761,15.72815 -19.58267,8.77529 z m -21.22437,-2.76644 c 0.66857,-14.14877 9.08266,8.48318 0,0 z m -186.2507,-4.6989 c 15.15896,-18.73749 -8.78942,15.91718 0,0 z m 117.408,-0.79906 c 19.56404,-15.00628 -10.15542,16.76981 0,0 z m -38.35292,0.1726 c 5.68718,-9.60349 7.36117,5.86143 0,0 z m 47.59231,1.34871 c 19.18489,-18.96353 22.35996,-10.8335 0,0 z m 18.50811,-1.0635 c 10.9912,-9.40357 5.59852,8.83995 0,0 z m 22.1938,-6.39201 c 28.34164,-19.73942 5.82727,3.30407 -7.40048,8.51094 l 0.97962,-2.53673 6.42086,-5.97421 z m -112.09037,3.05181 c 17.63312,-22.27565 34.49551,-28.683 0,0 z m 148.06496,-3.56832 c 6.16907,-17.91524 2.82801,13.83697 0,0 z m -175.07458,-7.05692 c 22.9571,-21.7147 10.21398,3.23907 -4.51712,5.31782 l 4.51712,-5.31782 z m 8.5015,-3.69672 c 8.06401,-14.46432 -14.25331,14.6814 0,0 z m 75.61804,8.84531 c 23.55623,-22.68845 3.39025,10.07278 0,0 z m 129.90461,-2.43437 c 7.70002,-14.74384 -1.58733,16.81068 0,0 z m -230.64081,0.21237 c 12.15783,-9.42148 0.17117,9.04954 0,0 z m 37.72415,-5.51943 c 34.69753,-23.5591 -21.18323,19.67168 0,0 z m 201.76814,-0.88311 c 1.12996,-11.5115 2.44249,9.91584 0,0 z m 53.55293,-0.10421 c 5.02766,-11.22222 2.83311,13.63472 0,0 z m -32.60954,0.0398 c 6.66949,-10.37462 7.2818,5.5692 0,0 z m -30.29327,-3.94728 c -0.15261,-13.13811 7.56176,8.30991 0,0 z m -173.29606,-4.15704 c 14.45452,-14.62429 -8.31139,14.23198 0,0 z m 21.86531,-1.50821 c 1.17571,-15.87743 5.28596,13.85222 0,0 z m 103.89563,2.55708 c 14.25869,-16.16034 31.96426,-11.59171 2.6342,1.74747 l -2.69594,0.14366 0.0618,-1.89113 0,0 z m 32.88011,-3.6982 c 14.4545,-14.6243 -8.3114,14.23197 0,0 z m -83.28655,-3.97399 c 19.88427,-19.27878 -13.70459,18.87335 0,0 z m 22.47414,1.62937 c 21.46515,-21.00135 12.72169,1.86427 0,0 z m 56.10607,-4.22753 c 21.18162,-23.34433 -7.43245,17.7911 0,0 l 0,0 z m 16.59563,2.61241 c 14.12998,-15.00133 12.86764,-1.1166 -0.71862,2.41426 l 0.71862,-2.41426 z m -100.90455,-3.9156 c 12.26683,-18.23585 -1.97156,-12.01905 24.07029,-21.87565 22.50738,-24.75807 -10.89718,21.18804 -22.48351,23.48347 l -1.21091,-0.0901 -0.37587,-1.51773 z m 151.93519,-1.27682 c -17.10655,-6.85756 17.26875,7.76702 0,0 z m -206.40194,-3.09855 c 15.43905,-8.551 -7.02204,9.11148 0,0 z m 40.36534,-0.99591 c 14.45451,-14.62428 -8.31144,14.23199 0,0 z m 64.07063,-6.24293 c -0.18536,-6.53161 44.01634,-40.98719 20.60613,-16.92605 -6.35728,6.20595 -13.9436,13.33525 -20.60613,16.92605 z m 57.55415,-4.35437 c 25.00787,-23.94671 -18.81247,23.53681 0,0 z m -64.14037,-1.56842 c 11.90972,-29.27923 5.2667,3.70667 0,0 z m 89.48091,-0.70617 c 11.87756,-15.23609 -0.8453,11.02048 0,0 z m -121.5748,-1.25783 c 3.65962,-8.42046 7.16093,7.01688 0,0 z m 79.73334,-3.52256 c 1.11654,-16.99921 33.5333,-15.3445 11.21381,0.43248 16.94262,-26.82423 -26.16287,17.45256 -11.21381,-0.43248 z m -54.88753,-16.78892 c 14.45451,-14.6243 -8.31143,14.23197 0,0 z m 59.40317,1.18328 c 7.08756,-25.20961 12.205,10.58263 0,0 z m -42.24373,-2.55116 c -15.20005,-6.10507 18.28925,-5.02786 -10e-5,0 l 10e-5,0 z m 8.09829,0.26949 c 0.50551,-14.2891 11.92843,6.11536 0,0 z m 14.54623,-4.02673 c 2.3169,-5.63978 30.36558,-24.62001 13.07638,-2.90908 -4.69879,-1.21978 -8.67618,10.50458 -13.07638,2.90908 z"
       id="path3003"
       inkscape:connector-curvature="0"
       transform="translate(0,28.362183)" />
    <path
       style="fill:#699c5d;display:inline"
       d="m 477.03688,580.52597 c -30.29069,-10.64945 -80.14806,-29.78367 -71.26346,-71.15123 9.79292,-21.51379 30.92405,-19.52539 25.4525,-9.71916 15.03349,-7.59308 38.82778,-20.93283 13.88848,-18.849 53.67813,-7.89993 -57.46151,43.04279 -18.68599,38.23643 12.58487,-12.82926 65.42713,-44.61429 24.02582,-15.12027 -19.82085,4.78842 -37.6622,48.12817 -9.44631,22.37301 7.15746,-14.27533 51.61583,-48.6555 17.96577,-16.55306 -22.05497,9.27959 -31.79333,56.56883 -5.33624,22.35495 11.9816,-23.02872 33.87543,-46.38418 9.33616,-7.82049 -21.39127,15.72028 -7.8059,48.817 2.85129,13.81956 18.38764,-46.83131 -16.69676,59.4267 11.34777,6.31159 4.86681,-23.78692 17.26544,-60.2639 7.28264,-12.74308 -15.7536,22.15065 3.61871,51.35647 6.28209,13.27912 0.89819,-26.56491 9.58942,-51.51708 4.31156,-10.54675 -16.06862,29.44416 17.16449,45.85927 8.91515,10.84135 -2.09415,-22.44813 2.48141,-53.72431 2.81798,-11.78377 -0.18587,63.43336 16.61724,5.07658 12.8793,13.19123 28.85168,61.75564 -12.75476,-79.50948 7.03197,-20.48005 -2.46675,28.47425 38.00048,44.82821 16.09992,12.04704 -13.36897,-14.8209 -31.07703,-59.8232 0.37319,-27.87435 5.78558,23.97776 51.56004,44.83149 20.34426,9.51838 -18.71977,-14.45368 -38.52322,-39.90341 -7.56507,-11.16844 7.79387,19.49364 49.64315,29.40802 19.50039,4.34967 -19.9646,-8.56513 -54.82139,-42.36328 -11.33533,-23.98763 14.80585,17.55895 60.28586,13.3022 21.88811,-1.67666 -36.22221,-10.68942 51.54574,10.41485 10.28391,-11.51264 -24.88232,-2.55764 -65.64838,-0.44441 -42.49349,-32.58051 11.11944,16.00104 48.67701,-2.95073 33.44993,-8.80331 49.13925,-13.36005 40.526,51.58921 26.72288,78.39613 -13.98526,25.25734 -35.72004,49.11132 -64.47991,61.39001 -22.62654,9.22412 -48.51722,9.07539 -72.44527,6.26193 z m 86.25358,-35.88379 c -7.0965,-14.09911 -49.87652,-68.18335 -26.40015,-23.61655 5.00682,5.15375 18.67866,45.84421 26.40015,23.61655 z m 30.74418,-26.80595 c 4.5009,-22.65357 -81.30513,-45.65856 -30.27883,-16.7199 9.42192,4.47585 20.08546,17.82773 30.27883,16.7199 z m 15.8641,-50.55384 c 1.37894,-14.47998 -48.40827,-4.39849 -52.53744,-1.62073 13.28503,-1.11457 46.87507,17.557 52.53744,1.62073 z m -0.48565,-15.2336 c -9.96125,-14.25784 -87.83883,8.56004 -34.29399,5.91248 8.43179,-3.00329 32.98689,6.4128 34.29399,-5.91248 z m -94.49023,79.03813 c 1.12998,-11.51149 2.44247,9.91583 0,0 z m -2.64401,-13.24663 c 1.12996,-11.51149 2.44248,9.91587 0,0 z m -34.35465,-5.5194 c 1.42986,-19.88766 10.04903,-2.88805 0,0 z m -53.05677,-26.55348 c 26.78278,-20.94212 15.5004,12.77015 0,0 z m 126.86294,-9.21239 c -8.54814,-8.17228 24.95623,8.53011 0,0 z m -113.93251,-2.85388 c -4.39626,-8.59807 30.79562,5.14314 0,0 z M 557.0184,442.11382 c 7.11908,-10.67672 6.23102,10.31486 0,0 z m 6.83068,-4.35318 c 15.25683,-21.42451 26.96864,3.26541 1.75786,2.85269 l -1.75786,-2.85269 0,0 z"
       id="path3001"
       inkscape:connector-curvature="0"
       transform="translate(0,28.362183)" />
    <path
       style="fill:#60615f;display:inline"
       d="m 824.06413,853.29661 c 6.8505,-10.33172 63.68647,-62.46762 30.02857,-27.66671 -9.34979,8.31697 -18.52015,23.88632 -30.02857,27.66671 z m 60.91993,-67.84931 c 32.05691,-40.92006 -21.28173,34.7156 0,0 z m -31.62698,-26.51858 c 1.12997,-11.51149 2.44245,9.91585 0,0 z m 52.67159,-4.19475 c 12.57107,-19.01204 -6.48314,18.8043 0,0 z m -50.02758,-19.64916 c 1.12997,-11.5115 2.44247,9.91586 0,0 z m -204.75423,-2.87009 c 7.52578,-12.83482 0.53444,13.25862 0,0 z M 464.47779,714.92136 C 408.21045,713.52892 353.35493,693.96096 306.0322,664.40264 248.29027,624.0932 249.4527,537.09555 292.5863,486.33726 c 30.59642,-40.53646 75.00386,-67.44823 119.01114,-90.99266 -4.77394,7.99497 31.83568,-29.60243 24.41284,-23.81522 -27.22212,35.92243 53.51413,-38.99963 16.73078,-3.33505 21.60365,-2.22008 -38.87011,66.98852 -10.86202,14.89012 -5.32843,-6.91956 -34.02224,51.23498 -18.34603,7.01973 -6.33962,11.43528 -32.02484,50.82819 -19.60486,13.5961 -23.78348,39.23078 -71.14355,58.36162 -96.36744,98.01426 -37.85895,46.90222 -24.51743,126.87595 33.35376,150.55508 38.85379,23.66142 103.28213,-6.45399 120.19904,47.22721 -8.70944,-50.17392 46.9298,-2.00911 36.66808,17.41732 -11.09285,-0.79761 -22.19891,-1.39381 -33.3038,-1.99279 z m 40.92176,-7.21289 c -23.82443,-36.62963 28.03075,-28.83657 32.84787,-1.48756 11.94015,9.6279 -36.52563,13.006 -32.84787,1.48756 z m 353.55225,-1.98698 c 0.51378,-21.46515 2.01157,16.36458 0,0 z m -317.20588,-9.0494 c -16.86381,-19.21211 18.35852,-15.08961 26.82153,-12.34046 24.33339,26.49547 -16.44867,37.67791 -26.82153,12.34046 z m 38.88328,-3.22614 c -11.20228,-40.44932 66.60018,9.71722 13.49706,10.00695 -11.93667,5.91228 -10.0671,-0.92545 -13.49706,-10.00695 z m 36.64529,-6.17211 c -17.69424,-37.83798 42.3894,20.37253 5.72637,7.85467 l -5.72637,-7.8546 0,-7e-5 z m 22.97403,-6.84632 c -17.12439,-28.49326 29.716,10.31254 4.81876,8.23766 l -4.81876,-8.23766 z m 51.27748,0.78772 c -7.50139,-11.80684 15.03718,15.14902 0,0 z m -34.92985,-6.96 c -24.01206,-27.7256 63.31328,-0.6454 11.21963,7.47729 l -4.89503,-0.93579 -6.3246,-6.5415 z m 84.9528,7.15555 c -3.66332,-19.85233 7.95884,6.55448 0,0 z m -55.10389,-16.97903 c -30.16369,-16.06447 46.72965,-4.00869 18.04125,3.31931 -6.10322,5.03082 -13.48274,2.10659 -18.04125,-3.31931 z m 35.87518,-3.90988 c -20.84323,-1.28955 -32.51453,-23.10002 -6.34294,-15.20164 18.99286,12.42752 17.63866,17.22561 6.34294,15.20164 z m 228.7377,2.81043 c 2.64911,-13.88341 8.63063,-6.7242 0.75289,0.70373 l -0.75289,-0.70373 z M 732.07163,647.711 c -29.93972,-29.21315 63.49448,-6.24445 9.47497,3.49972 6.56213,17.16799 -0.10153,3.17587 -9.47497,-3.49972 z m 44.19044,7.01101 c 9.75403,5.7014 -5.8004,-16.57336 -7.0779,-16.07327 6.64427,3.84745 27.97837,29.91897 7.0779,16.07327 z m 85.61061,-11.25963 c 1.50968,-29.6653 1.42661,29.73284 0,0 z m -292.29519,-4.4039 c 16.45314,-2.62813 0.20507,4.5839 0,0 z m -32.99516,-2.49538 c 13.04315,-4.52444 1.88913,5.45131 0,0 z m 225.00825,-1.12358 c -50.8396,-6.71308 15.26337,-39.12732 28.29311,-8.30687 -10.13933,-0.8628 -18.03381,10.57164 -28.29311,8.30687 z m 200.17119,-3.67832 c 1.12997,-11.51148 2.44246,9.91585 0,0 z m -167.92789,-7.67281 c -9.42521,-17.97993 -40.17605,-23.41996 -2.34938,-18.45516 42.65222,16.61156 -26.06602,-36.65785 21.94524,-29.98889 44.23715,10.44637 -8.69257,-16.38882 4.14461,-11.60486 51.56934,-19.39582 40.88977,25.46148 0.61248,39.7833 -6.79993,-0.0574 -23.74,26.07611 -24.35295,20.26561 z m 170.5719,-2.92448 c 1.12999,-11.51149 2.44249,9.91586 0,0 z m 2.64403,-10.5973 c 1.13,-11.51147 2.44244,9.91586 0,0 z M 496.867,601.89629 c 23.52711,-1.44236 -1.74745,3.97646 0,0 z m 472.82683,-1.92696 c 1.12998,-11.51151 2.44245,9.91584 0,0 z M 858.9518,589.15127 c 0.51378,-21.46515 2.01157,16.36457 0,0 z m 113.69274,-2.64933 c 0.51377,-21.46514 2.01156,16.36458 0,0 z m -489.65862,2.27145 c -36.35335,-10.18058 -86.75932,-30.64516 -86.89833,-75.77559 2.10468,-17.91759 22.46264,-35.7663 30.05195,-37.5216 -17.58135,12.45919 7.45942,-39.73765 9.91507,-12.12723 11.25827,10.55111 -30.05001,33.7946 5.05134,19.9506 -8.36475,6.36078 -51.88722,13.01685 -35.89032,49.03458 35.97952,53.65836 118.84308,66.88771 170.31087,26.47812 23.10199,-18.17984 40.2771,-42.94141 47.18224,-71.91043 18.05852,-34.51963 -22.17266,-63.41637 -39.2502,-54.03443 5.94642,-7.87614 -36.20169,3.48575 -6.61004,-8.12942 32.76382,-16.93234 66.4501,23.8348 52.1023,63.33616 -8.28879,36.5866 -33.68149,70.65658 -66.64439,86.17096 -22.46042,14.57427 -53.01021,16.10137 -79.32049,14.52828 z m 492.4006,-19.49205 c 1.77402,-21.03791 1.29997,19.72962 0,0 z M 334.5724,550.73607 c -12.87013,-26.22603 40.99807,-69.05255 33.27148,-27.44801 -14.6909,1.1069 -35.94925,68.08444 -33.27148,27.44801 z m 267.3943,9.27263 c 14.45451,-14.62427 -8.31144,14.23199 0,0 z m 376.20661,-13.24661 c 1.95794,-25.40483 1.18291,27.98068 0,0 z m 2.88772,-43.71384 c -0.28209,-43.28423 -2.61181,21.51979 0.28022,17.04261 l -0.20497,-6.41478 -0.0756,-10.62783 z m -494.38824,0.39812 c -43.62537,-22.94855 19.32126,1.03389 20.77133,2.95872 -7.0343,1.04847 -14.19595,-0.51034 -20.77133,-2.95872 z m 28.04132,1.08291 c 6.6695,-10.37466 7.28178,5.56921 0,0 z m -53.9533,-24.63386 c 7.51264,-12.53918 14.87823,-71.42227 18.26767,-24.35522 -2.74828,9.49995 -8.68546,20.43382 -18.26767,24.35522 z m 83.07799,-1.19704 c 5.61824,-18.08279 4.545,7.84549 0,0 z m 203.96629,-7.442 c 1.98256,-14.64698 1.9826,14.647 0,0 z m 230.36822,-11.92195 c 1.95794,-25.40483 1.18291,27.98067 0,0 z m -429.42439,8.61029 c -9.35877,-20.84098 7.37847,-4.0412 0,0 z m -1.27977,-23.18157 c -14.40978,-14.81696 13.68893,-39.56024 0.43486,-16.15629 27.58249,-18.68076 37.83984,-7.9222 10.58306,3.92302 -11.3845,-3.25917 -8.69455,7.05414 -11.10244,17.84529 l 0.0845,-5.61327 0,9.9e-4 z m 199.54559,3.53578 c -25.22839,-37.35681 -83.56167,-16.92732 -109.00981,-38.04201 36.14498,-4.36788 110.24563,-9.1963 110.54406,41.94805 l -1.53425,-3.90604 0,0 z m 228.17583,-8.83443 c 1.98257,-14.64714 1.98258,14.64713 0,0 z M 641.8357,433.06196 c 1.12997,-11.51151 2.44245,9.91585 0,0 z m 330.80884,-13.46739 c 0.51377,-21.46514 2.01156,16.36459 0,0 z m -2.95071,-13.02584 c 1.12998,-11.5115 2.44245,9.91584 0,0 z m -2.64402,-10.5973 c 1.12999,-11.51148 2.44245,9.91585 0,0 z m -511.71661,-7.4566 c 2.97279,-32.23159 45.32578,-44.66751 15.60469,-4.95977 -1.32666,2.65623 -21.19125,17.1361 -15.60469,4.95977 z m 431.63601,-0.30173 c -29.02779,-10.06706 62.69413,-36.46008 5.02922,-18.64178 -14.74953,9.58865 -29.59782,8.77682 -44.51929,0.25636 1.57572,-8.97825 32.25058,-31.90705 -3.039,-7.8707 -34.84592,13.78509 33.53107,-37.57533 -10.0947,-11.41974 -43.96823,23.37962 -21.2447,-8.26411 -13.99951,-12.24824 -19.06752,20.43459 -56.87881,10.11372 -41.71505,-3.24095 -24.80384,21.84162 -27.77257,-5.67743 -19.91198,-2.45863 -16.84581,15.7874 -56.17214,7.93846 -45.45711,-5.12781 -29.72793,27.37584 -27.32936,-4.16648 -19.76559,-4.07291 -14.4823,17.03016 -65.16155,27.67535 -41.83196,-2.86108 -11.15609,13.62182 -64.75391,40.64136 -47.01466,4.93903 -10.36797,9.79011 -31.76261,36.47389 -14.61986,3.00366 35.63777,-14.5182 77.92105,-17.3816 116.59742,-24.29879 74.49008,-6.76494 159.25676,-3.23566 216.73448,51.17696 38.87439,-43.46468 -21.4215,57.94737 -36.39241,32.86462 z m -474.04975,-1.73507 c 12.15784,-9.42148 0.17118,9.04955 0,0 z m 67.42244,-6.94568 c 2.14608,-39.23625 49.15734,-41.40988 73.84798,-42.70214 -12.22742,25.70897 -20.58508,20.80835 -25.6366,12.47029 -10.41096,17.08191 -30.01922,24.61693 -48.21138,30.23185 z m -58.16837,-3.32722 c 11.32733,-20.86008 4.44713,9.46953 0,0 z m 539.58824,-1.42828 c 1.12998,-11.5115 2.44246,9.91583 0,0 z M 558.01202,340.10422 c 2.06773,-21.67338 40.321,-15.28129 13.27758,4.67578 -5.21557,10.24669 -16.65693,9.50916 -13.27758,-4.67578 z m 394.61359,7.8562 c -5.25215,-18.82342 7.50921,12.01409 0,0 z m -5.44469,-13.69226 c -1.75259,-11.10695 7.38189,11.39926 0,0 z m -517.07535,-1.81781 c 11.25838,-9.6073 6.39272,4.80028 0,0 z m 159.96305,-14.85472 c 0.69781,-9.71596 7.93633,8.925 0,0 z m -53.19917,-6.30386 c 5.96619,-18.90452 1.32105,10.80507 0,0 z m -82.96773,-5.61809 c 14.45452,-14.6243 -8.31139,14.23197 0,0 z m 66.79248,-2.81796 c -3.04359,-10.38946 36.6482,-33.36205 22.31927,-26.23687 -2.86564,-12.07547 -25.46541,23.74194 -13.34746,4.21742 -12.95418,-16.08338 22.29409,-8.53914 21.39725,-23.96177 10.24613,-0.56184 -9.57092,29.66308 10.01538,10.89402 22.50082,-7.06374 -37.67267,30.22696 -40.38444,35.0872 z m 7.24,2.14208 c 11.01303,-20.46542 8.81084,3.06993 0,0 z m 19.83014,-0.64879 c 12.15783,-9.42148 0.17118,9.04953 0,0 z m -43.62629,-4.25918 c 5.40391,-7.23931 11.52473,3.82293 0,0 z m -20.93181,-4.43846 c 20.25743,-18.99384 7.57557,1.80703 0,0 z m -5.50836,-5.87364 c 14.45451,-14.62428 -8.31142,14.23199 0,0 z m 65.39535,0.9959 c 15.43903,-8.55097 -7.02201,9.11152 0,0 z m 39.19483,-0.77929 c 20.9997,-10.35471 -12.73441,13.33732 0,0 z m 54.05086,0.85875 c 17.63313,-22.2757 34.49548,-28.68301 0,0 z m -68.94093,-3.06235 c -3.68581,-23.27787 10.82554,-2.35427 0,0 z m -13.02362,-4.63632 c 20.63192,-9.50568 -8.15238,8.87555 0,0 z m 34.37223,-7.94797 c 12.57108,-19.01204 -6.48313,18.80434 0,0 z m 23.79616,-1.32466 c 14.4545,-14.62428 -8.31142,14.23199 0,0 z m -10.57606,-2.39416 c 12.13875,-25.94173 -2.81813,13.48645 0,0 z m -24.58447,-3.25281 c 6.10338,-18.69348 35.6871,-20.42414 2.61918,-2.98698 -1.8511,1.64258 2.73656,8.05508 -2.61918,2.98698 z m 101.26096,-4.95032 c 14.4545,-14.62429 -8.31139,14.23197 0,0 z m -58.16839,0.28346 c 11.25838,-9.60729 6.39277,4.80024 0,0 z m 109.69319,-4.46388 c 4.60171,-20.41914 6.04657,14.54789 0,0 z m -88.54105,-1.11823 c 14.45452,-14.62428 -8.3114,14.23199 0,0 z m -35.51266,-9.68974 c 16.22088,-11.19406 42.68746,-42.35413 15.85063,-7.25837 -2.21503,3.40653 -31.86409,22.02476 -15.85063,7.25837 z m 59.30882,1.74177 c 22.47618,-13.31492 -7.19147,12.49802 0,0 z m -76.85721,-7.27109 c 24.5346,-21.97538 15.59936,-3.4043 -4.40874,5.22001 l 4.40874,-5.22001 0,0 z m 94.15625,6.12949 c -0.33413,-14.74054 11.6954,11.11109 0,0 z m -51.67127,-4.00069 c 6.66951,-10.37464 7.28179,5.56923 0,0 z m 71.42626,-2.57859 c 12.69272,-4.85809 0.61947,9.27557 0,0 z m 66.06265,-1.22735 c 13.96991,-21.13901 7.74467,7.11592 0,0 z m -52.51463,-4.73994 c 12.73375,-10.87748 -2.37896,12.40086 0,0 z m -16.49234,-7.46211 c -5.36848,-25.51621 10.37808,-1.64899 19.86856,-15.40627 -24.11357,12.77357 -11.04091,9.92576 -15.07204,24.54832 l -4.79652,-9.14205 0,0 z m 62.86308,1.94268 c 7.25555,-18.033 -12.8037,-15.50753 17.33104,-28.66678 17.63523,-8.26948 -28.05772,28.93844 -3.47523,14.07967 0.0745,1.39826 -16.74846,26.07486 -13.85581,14.58711 z m 37.87208,2.29971 c 7.75881,-15.33963 5.69512,7.05939 0,0 z m -181.55585,-4.35624 c 18.33776,-26.44382 14.27225,-12.79141 0,0 z m 28.20285,1.63647 c 20.08619,-30.43317 1.09778,7.46149 0,0 z m 140.73097,-1.77549 c 24.81264,-20.17107 -14.03477,15.21323 0,0 z m -123.37486,-1.89268 c 9.99045,-13.1949 -3.34892,12.119 0,0 z m 65.04774,1.1047 c -5.02838,-12.04664 13.94087,5.51013 0,0 z m -13.65939,-2.67897 c 6.80175,-13.85821 17.1897,-6.74426 0,0 z m 109.83964,-0.11541 c -0.56534,0.89965 40.82541,-33.27355 10.42202,-2.37445 l -7.49092,4.84072 -2.9311,-2.46627 0,0 z m -86.04349,-4.15704 c 14.45451,-14.62429 -8.31139,14.23197 0,0 z m 74.03248,0 c 14.45452,-14.62429 -8.31139,14.23197 0,0 z m -142.30878,-5.86387 c 38.92549,-35.73756 5.27469,5.756 0,0 z m 18.03998,-4.73343 c 34.13054,-31.50869 -26.56164,29.83563 0,0 z m 50.14915,2.42073 c 17.65143,-18.51769 -5.44884,14.69858 0,0 z m 86.63466,1.22451 c 15.43907,-8.55101 -7.02203,9.11148 0,0 z M 649.77933,208.2237 c 20.25738,-18.99377 7.5756,1.80699 0,0 z m 118.05537,-2.2284 c 15.43907,-8.55101 -7.02205,9.11148 0,0 z m -99.76759,-1.64451 c 13.12733,-19.47021 25.74407,-12.4098 0,0 z m 44.15999,0.30025 c 2.79965,-43.63156 19.15957,-4.75688 0,0 z m 79.84519,-1.9827 c -5.50884,-13.94613 12.23997,0.56554 -1.64553,2.7033 l 1.64553,-2.7033 z m 27.30186,-0.52684 c 24.81261,-20.17107 -14.03478,15.21322 0,0 z m -66.05636,-2.47232 c 22.56328,-7.52312 -7.01907,8.38423 0,0 z m 58.17783,-1.92707 c -12.79982,-12.89135 22.47523,-4.95277 0,0 z m -48.24389,-4.50832 c 5.68719,-9.60351 7.36118,5.86146 0,0 z m -16.01999,-14.72764 c 38.1312,-40.0281 -15.48024,21.37525 -12.59268,13.91417 4.19757,-4.63805 8.39511,-9.27615 12.59268,-13.91417 z m 6.4623,10.81324 c 13.18497,-11.50003 -0.50162,-9.8129 0,0 l 0,0 z m 30.70983,0.0676 c 7.63744,-8.43302 13.80979,5.56042 0,0 l 0,0 z m 73.69522,-3.5951 c -8.13299,-12.15237 16.08812,15.35886 0,0 z m -59.5938,-1.87045 c 4.8631,-9.30382 4.15021,12.03967 0,0 z m 2.52917,-6.23832 c 0.89534,-13.25863 17.95189,-4.17974 0,0 z m 23.02967,0.54637 c 8.54904,-13.55342 18.83168,-7.32453 0,0 z m 22.22295,-4.35954 c -15.51267,-17.97213 20.11165,18.95129 0,0 z m -69.81525,2.31138 c -2.5322,-10.83757 16.05245,-3.70741 0,0 z m -8.89692,-6.36865 c 1.29807,-22.67432 10.0071,7.80613 0,0 z m 45.91315,-1.74737 c 6.6695,-10.37464 7.2818,5.56924 0,0 z m 5.28804,-8.54829 c 16.53195,-14.77043 -0.36951,7.48492 0,0 z m -42.30427,-8.6723 c 5.68711,-9.6035 7.36122,5.86142 0,0 z m 13.22008,1.45175 c 11.25835,-9.60729 6.39276,4.80027 0,0 z m 11.4574,-2.81623 c 5.02768,-11.22219 2.83306,13.63472 0,0 z"
       id="path2999"
       inkscape:connector-curvature="0"
       transform="translate(0,28.362183)" />
    <path
       style="fill:#2f2f2f;display:inline"
       d="m 835.69926,830.23968 c 30.86051,-79.17506 25.87058,-166.52481 24.09891,-249.94361 -2.94544,-43.70362 -60.20384,-5.09471 -82.89702,0.96477 -6.64251,8.91274 24.75721,16.10896 -5.97342,15.50028 -19.61862,2.85904 15.43303,7.72352 -13.63327,17.24411 -26.45024,17.08905 -39.7656,28.48606 -77.71063,38.2487 30.53347,-0.44989 -14.98094,17.23471 -7.05508,4.78002 -18.0423,13.59239 -54.82084,-9.44273 -22.58321,21.2401 -18.67895,-23.86044 -35.15134,11.0736 -52.07803,-9.52919 10.41043,23.99602 -37.02994,-3.63249 -38.69458,13.33868 -22.42044,13.42697 -64.34096,-44.06766 -35.59263,-0.69198 -27.24874,18.63027 -67.09036,-47.18825 -18.40151,-22.60351 75.60556,10.03574 162.79397,1.92445 216.81461,-58.41168 23.26486,-35.3796 41.55986,-66.61534 85.17818,-77.76066 22.74638,-9.39956 48.49388,-8.47988 28.87449,-40.30057 30.11691,-9.90307 87.34984,-14.22041 122.46483,-38.6726 34.45744,-10.55966 16.25013,61.92609 19.97031,87.67975 -6.16788,121.64002 -64.07772,236.63985 -151.54446,320.11197 2.92084,-7.06485 5.84168,-14.12973 8.76251,-21.19458 z M 802.42227,554.80331 c 37.54892,-20.61445 -72.69839,27.90873 -12.83703,4.71939 l 6.59839,-2.53684 6.23864,-2.18255 z m 33.49203,-19.8855 c -17.18933,-15.35076 -55.78775,7.6917 -12.78278,2.36873 l 6.22578,-0.5525 6.557,-1.81623 0,0 z M 652.62049,722.94209 c 1.98254,-14.64706 1.98258,14.64708 0,0 z m -148.06497,-7.94797 c 1.98249,-14.64683 1.98257,14.64688 0,0 z m 169.31509,-1.32466 c 0.51376,-21.46515 2.01156,16.36458 0,0 z M 462.04252,687.39699 c 1.12996,-11.51149 2.44249,9.91584 0,0 z m -2.81229,-9.10863 c -8.50354,-17.66939 -21.22696,-45.94505 8.6232,-21.9993 22.44263,29.71395 23.26402,22.55122 -8.6232,21.9993 z m 232.43291,-7.6704 c -21.75652,-23.75606 26.35882,24.40896 0,0 z m -266.8456,-3.50013 c -49.42621,-0.93289 -110.2258,-10.68409 -131.3924,-62.67728 -7.9391,-24.45329 -15.79216,-73.13178 9.14362,-32.41083 27.84659,35.23673 78.76447,39.75606 106.95217,72.93669 7.17915,19.80465 4.17345,-29.0109 23.07935,1.85495 9.85999,17.51641 22.80355,28.2931 -7.78274,20.29647 z m 291.91269,-21.66844 c -15.51265,-17.97212 20.11165,18.95129 0,0 z m -190.81944,-4.82561 c -22.16652,1.66065 -89.59561,-20.75009 -32.75173,-10.06489 17.04702,5.08803 85.77403,6.77601 69.14737,12.33334 -12.15567,-0.26082 -24.29073,-1.16267 -36.39564,-2.26845 z m 260.93698,-25.64162 c -20.91741,-23.32251 24.87896,23.82716 0,0 z m 20.20025,-10.48302 c -1.69226,-10.46156 7.62668,11.2897 0,0 z m -423.87376,-4.11223 c -34.74883,-23.56152 39.49996,14.53574 0,0 z m 394.01364,1.73498 c 13.04299,-4.52426 1.88917,5.45124 0,0 z m -312.42518,-5.03164 c -41.72327,-14.12086 -91.66401,-46.51604 -83.05972,-97.06662 -12.36332,-27.07536 68.61094,-61.30496 37.72732,-26.45004 -6.97546,6.99798 30.23097,-3.05644 -2.50569,7.89073 -31.00246,15.78701 -24.20689,66.88536 10.21908,83.07829 35.31539,26.94737 85.26893,31.74931 126.85696,15.01171 27.57197,-13.89736 54.35146,-36.82466 66.69485,-67.11735 24.54376,-36.69187 5.54373,-85.67831 -23.60845,-93.49698 -22.15351,2.56747 -61.00459,26.85215 -20.00553,0.34739 -55.47643,-6.11311 -10.01385,60.28944 -50.18892,76.53545 -12.52871,20.13295 -80.33948,-0.70784 -57.11576,-22.84959 15.81078,-10.35262 3.19793,-63.67588 15.85308,-22.95406 -29.86211,45.65248 56.00238,39.07508 50.51329,-5.74072 -19.23162,-38.65167 26.31743,-26.9872 58.42063,-34.41145 63.46828,-10.22968 56.43201,82.6823 31.70215,118.02889 -28.63361,51.15769 -87.96278,82.08311 -146.31139,71.79977 l -8.80507,-1.18505 -6.38683,-1.42037 0,0 z m 86.24617,-173.5217 c 13.59684,-20.30294 -27.67005,16.88526 0,0 z m 151.43046,168.23203 c 14.45451,-14.62428 -8.31144,14.23199 0,0 z M 358.71711,587.553 c -19.69672,-14.39963 33.01493,15.18854 0,0 z m 425.68676,-1.12322 c -28.71298,-6.98975 57.27274,-22.95054 12.61438,-7.10531 -9.52376,3.26091 5.84216,21.48234 -12.61438,7.10531 z M 319.58565,563.45283 c -20.50227,-39.03443 12.66169,5.22873 0,0 z m -1.60766,-27.28803 c 14.52066,-20.49378 1.60595,26.05397 0,0 z m 14.50769,2.87009 c 1.12998,-11.51149 2.44246,9.91584 0,0 z m -42.51301,-1.77213 c 18.15563,-46.96805 57.45136,-84.73358 99.86834,-110.41048 1.64637,13.58123 25.57476,-30.65835 17.23129,-3.65995 8.69408,-22.37272 22.58271,-26.64865 7.08521,2.94577 -47.48979,27.82351 -91.1315,65.64852 -121.65114,112.6188 l -1.99317,0.95989 -0.54053,-2.45403 0,0 z m 44.30312,-15.44545 c 8.79612,-20.38651 59.56824,-62.00845 63.89942,-57.37955 -24.54171,14.83464 -51.72329,55.1386 -67.49397,66.12632 1.19818,-2.91559 2.39635,-5.83118 3.59455,-8.74677 z m -7.28689,2.5819 c 6.29295,-13.85246 3.59653,9.18006 0,0 z m 420.81619,-42.54553 c 1.98257,-14.64705 1.98259,14.64703 0,0 z m 107.35726,-29.70661 c 20.45981,-5.76708 84.31165,-15.2834 81.32965,-27.58398 -21.82604,8.44249 -95.62774,18.58269 -40.61228,-8.37645 32.47663,-9.64429 83.65518,-49.34326 77.0667,11.50148 -32.19685,22.00702 -85.84757,27.87075 -117.78407,24.45895 l 0,0 z m -423.11784,-2.41403 c 15.43905,-8.55099 -7.02202,9.11151 0,0 z m 12.94604,-13.7988 c 23.57857,-12.61184 102.97495,-35.58623 99.18605,-25.62488 -35.70019,5.30235 -67.00298,26.56577 -100.34133,27.52082 l -0.38857,-0.7396 1.54385,-1.15634 0,0 z m 301.71274,-4.10449 c -15.90978,-13.10541 -32.16153,-24.03044 -0.11406,-13.95238 9.24881,-2.30167 2.48158,28.40683 0.11406,13.95238 z m 110.41106,-2.96254 c 9.1014,-15.0623 23.70705,0.38001 2.41828,2.1581 l -2.41828,-2.1581 z M 424.94827,412.71452 c 17.88299,-10.24475 32.89489,-21.94834 48.79377,-27.21959 -2.40419,38.64521 -2.46046,-26.21582 10.46411,-6.78212 18.21766,-6.29957 52.84418,-29.72014 24.45568,0.82125 -17.54578,26.45882 -68.08757,33.40704 -87.31977,40.84612 l 3.60621,-7.66566 0,0 z m -25.2489,-2.39258 c 16.09487,-26.14948 -8.74454,25.28117 0,0 z m 311.3881,1.04869 c 13.04311,-4.52442 1.88913,5.45129 0,0 z m -21.15214,-2.64933 c 13.04302,-4.52428 1.88916,5.45125 0,0 z m 139.4934,-0.75289 c 5.11786,-7.88967 39.38595,-32.23875 55.40558,-21.10688 10.93148,20.35996 39.22384,-17.30163 17.80847,6.14396 -20.62135,14.41182 -48.75832,18.95356 -73.21405,14.96292 z m 50.3801,1.38772 c 20.78365,-16.06613 12.45943,2.62265 0,0 z M 643.60996,405.7561 c 33.07058,-1.13777 15.31917,2.31496 0,0 z m 261.45496,-9.76652 c 14.45443,-19.61196 44.12692,-90.03297 52.5456,-34.73188 26.26276,35.84533 -45.72144,34.10952 -57.36252,41.11195 l 4.81692,-6.38007 0,0 z m -98.68069,-0.99464 c 14.48577,-12.80699 36.33472,-35.12655 57.056,-19.11103 5.28467,9.06874 -43.38103,24.15547 -57.056,19.11103 z m -382.64556,-7.19225 c 16.59634,-21.77959 -9.07678,21.13881 0,0 z m 86.91395,-2.22088 c 12.56237,-24.10382 48.31761,-45.87609 23.24152,-9.67295 1.98267,10.49318 -44.69802,27.84341 -23.24152,9.67295 z m -77.90303,1.93569 c 5.17495,-7.68765 11.82869,4.55009 0,0 z m 360.02701,-0.93265 c 18.18789,-26.33258 68.33595,-32.9781 28.23519,-8.03622 -7.22246,1.3427 -22.45132,15.94709 -28.23519,8.03622 z m -254.93817,-6.0678 c 3.02832,-18.48564 44.69733,-46.58315 18.81304,-13.66974 -0.32023,4.1755 -30.08034,31.09769 -18.81304,13.66974 z m 19.52213,-9.27263 c 11.70107,-22.59715 46.99599,-38.76853 16.60349,-4.62882 -3.65755,13.92178 -39.79924,25.61766 -16.60349,4.62882 z m 18.74116,-2.71518 c 14.00288,-37.53362 40.01573,-20.84166 63.71214,-38.55797 -16.22422,21.94104 -51.35331,57.4965 -73.99611,49.15811 3.42798,-3.53338 6.85599,-7.06676 10.28397,-10.60014 z m 191.37659,10.42392 c 2.96508,-27.52942 87.18561,-29.58002 31.03486,-4.40758 -9.72081,3.87118 -20.48808,7.54015 -31.03486,4.40758 z m -165.27733,-3.66913 c 29.26084,-29.6819 38.13321,-41.12528 75.77653,-40.58015 30.1323,-25.90713 -25.53004,30.87717 -38.00226,35.95238 -12.06014,4.09425 -25.17513,4.12371 -37.77427,4.62777 z m 141.69141,-4.02989 c 12.83437,-25.76199 35.77231,-34.35945 46.78963,-15.54082 -14.11899,7.5544 -30.41381,16.21959 -46.78963,15.54082 z M 674.80245,351.3745 c 24.38649,-33.93717 34.83836,-7.95429 1.22223,12.36725 -27.71297,18.43505 -12.79894,-0.78151 -1.22223,-12.36725 z m 21.56787,-1.17135 c 11.65156,-31.67153 29.10905,-1.30732 52.77909,-10.42399 -6.44562,19.36368 -70.63242,40.46982 -64.73055,23.80447 3.98382,-4.46016 7.96763,-8.92032 11.95146,-13.38048 z m 40.5987,7.25258 c 16.0135,-19.86255 41.16797,-12.2829 10.42424,3.34869 -10.54878,10.84746 -34.00477,12.84709 -10.42424,-3.34869 l 0,0 z M 898.0966,369.3935 c 21.37896,-16.02036 20.84508,-5.78458 0,0 z m -52.88032,-2.46101 c -2.53221,-10.83757 16.05243,-3.70732 0,0 z m -355.43516,-17.2448 c 11.8163,-22.63268 2.72915,7.21463 0,0 z m 353.67247,-1.61383 c 9.8434,-14.64049 14.77138,1.91353 0,0 z m -31.72821,-2.54379 c 5.02768,-11.2222 2.83308,13.63474 0,0 z m -254.49824,-5.19442 c 1.12998,-11.51151 2.44247,9.91584 0,0 z m 264.19296,-1.38908 c 5.68718,-9.6035 7.36121,5.86141 0,0 z m -62.57506,-4.0138 c 5.02768,-11.2222 2.83308,13.63474 0,0 z m -334.0275,-6.42715 c 7.75883,-15.33969 5.6951,7.05946 0,0 z m 13.22007,-5.45499 c 5.68716,-9.6035 7.36123,5.8614 0,0 z m 55.54699,-9.94423 c 13.13663,-20.41656 8.08643,2.3969 -3.7451,6.1262 l -0.35752,-0.68019 4.10262,-5.44601 z m -53.11287,-1.46131 c 12.85808,-6.45321 50.24652,-44.90555 23.21064,-15.91934 -1.24678,3.80304 -44.18644,34.44596 -23.21064,15.91934 z m 83.66644,-2.77403 c 9.99045,-13.19486 -3.34892,12.11901 0,0 z m 18.63202,1.25305 c 1.98531,-15.74863 9.93712,1.21634 0,0 z m -67.71632,-7.09976 c 24.88256,-23.91374 -18.66992,23.55295 0,0 z m 5.28803,3.7748 c 15.74554,-20.06168 37.5727,-34.43386 8.08697,-6.76122 l -4.20357,3.86408 -3.8834,2.89714 0,0 z m 14.34934,-7.06844 c 28.63833,-23.02785 -25.05206,25.69784 0,0 z m 70.2592,2.45531 c 11.69309,-13.30506 22.46256,-5.74161 0,0 z m -13.22007,-1.40037 c 1.5606,-13.19611 20.59446,-8.41121 0,0 z m -79.32052,-6.07268 c 16.46719,-20.85889 32.18208,-31.01962 0,0 z m 54.87983,-2.72136 c 10.88232,-17.22758 4.02133,7.20454 0,0 z m 75.59498,-3.0912 c 10.93259,-28.65429 15.51037,6.9814 0,0 z m 30.81024,-1.772 c 12.85889,-13.24083 -4.94262,13.32583 0,0 z m -63.45643,-2.93452 c 5.17498,-7.68763 11.8287,4.55008 0,0 z m 13.2201,-3.53242 c 5.66814,-14.21049 3.80747,9.16727 0,0 z m 18.50813,-4.13035 c 25.00784,-23.94671 -18.81251,23.53679 0,0 z m -83.44599,1.06616 c 1.3966,-12.84369 14.56827,10.09849 0,0 z m 47.33836,-3.28913 c 7.7574,-10.80158 21.95475,6.67081 0,0 z m 25.79301,-6.38733 c 20.09056,-20.52653 -8.77021,15.43014 0,0 z m 63.42417,-2.26375 c 24.25334,-15.8821 26.54383,-2.89869 0,0 z m 60.5068,-12.6664 c 14.65507,-26.32373 26.45339,-24.34283 3.28515,1.9186 -13.51747,14.8916 -24.40012,18.40306 -3.28515,-1.9186 z m -177.07277,12.65795 c 5.17497,-7.68762 11.82869,4.55008 0,0 z m 70.80376,-3.33406 c 16.2282,-6.28944 27.92317,-17.45907 2.61963,3.81561 l -2.8031,-0.27879 0.18347,-3.53682 0,0 z m 42.88899,-2.84769 c 5.66814,-14.21048 3.80747,9.16727 0,0 z m 35.03897,-4.34534 c 11.08226,-23.08498 -2.41546,13.02949 0,0 l 0,0 z m -128.76939,-0.46786 c 31.432,-35.10858 16.45818,2.88413 0,0 z m 88.40329,-4.00499 c 25.39728,-19.07199 -15.82622,18.60512 0,0 z m -36.97716,0.71386 c 10.43568,-18.66186 -1.2453,-21.67539 20.84396,-26.16811 -10.12943,7.70412 -22.63095,28.88719 -1.23073,14.56158 -3.31032,1.09103 -16.67507,20.21747 -19.61323,11.60653 z m 59.59774,0.17404 c -13.43295,5.22499 3.23736,-41.08068 0.91824,-10.56861 12.05395,6.97356 14.4545,-24.91687 -1.3777,-19.99307 25.19052,9.05548 46.60531,-47.25362 54.46731,-31.87144 -20.73534,7.95188 -29.15118,45.5882 -7.59187,12.27216 10.89471,11.06528 -57.91364,34.90443 -19.99602,31.30616 15.5052,-4.74738 27.37886,-36.41216 44.94514,-21.38805 -6.42533,20.39622 19.76423,-7.20262 -1.5284,13.94929 -13.76184,4.25709 -13.15057,-21.7765 -22.95072,1.52507 37.60321,-2.60809 -39.5113,11.69564 -46.88598,24.76849 z m 6.5027,-4.30438 c -14.25661,-5.86468 -3.21344,9.0818 0,0 z m 60.15138,-31.61754 c -13.92079,-16.51626 -7.3539,11.34658 0,0 z m 3.30502,29.12458 c 25.00787,-23.94671 -18.81247,23.5368 0,0 z m -110.33264,2.37335 c 13.04252,-4.52413 1.88949,5.45088 0,0 z m 165.857,-10.32132 c 14.45453,-14.62429 -8.31141,14.23197 0,0 z m -37.11087,-3.53857 c 13.5548,-13.02931 -10.3691,12.36336 -2.04276,4.66516 l 2.04276,-4.66516 z m -116.24213,-0.27906 c 5.66816,-14.21048 3.80747,9.16725 0,0 z m 135.54845,-14.91131 c 21.37042,-28.95789 -4.2606,13.26929 0,0 z m 17.80455,6.10612 c 8.97034,-11.00718 30.89423,-22.72429 7.92197,-4.64163 l -7.92197,4.64163 z m -153.353,-8.57177 c 24.88256,-23.91373 -18.6699,23.55294 0,0 z m 117.30728,4.63631 c -0.12368,-19.76259 19.91396,-13.53316 0,0 z m 91.36996,-12.1347 c 24.83869,-21.52462 -20.47007,22.22121 0,0 z m -18.07879,-0.72633 c 14.13954,-8.47752 41.26831,-29.90681 15.33763,-5.14844 2.00442,0.12443 -24.00395,15.25631 -15.33763,5.14844 z m -139.04011,-3.69723 c 19.7313,-19.26736 -13.52622,18.94875 0,0 z m 131.79684,0.44733 c 20.08172,-32.67177 -1.44204,20.76531 0,0 z m -78.46209,-0.12836 c -1.47061,-20.59465 34.15193,-10.41511 0,0 z m 38.31823,-4.81739 c 14.01572,-7.54936 0.91923,12.55288 0,0 z m 8.81968,-3.44955 c 3.55533,-9.8985 11.09781,9.49294 0,0 z m 54.20234,-4.98595 c 7.75881,-15.33962 5.69514,7.05941 0,0 z m -32.43327,-3.29078 c 15.43905,-8.55099 -7.02206,9.1115 0,0 z m -7.22698,-3.48887 c 6.66948,-10.37465 7.28178,5.56921 0,0 z m -7.93206,-4.42084 c -0.10603,-0.25987 28.85617,-18.43038 4.16615,2.89925 l -4.16615,-2.89925 0,0 z m 19.38945,-0.96154 c 19.90864,-24.94449 13.97359,-17.91592 2.4237,3.90135 l -1.71174,-1.14602 -0.71196,-2.75533 z m -25.84708,-4.29369 c 12.9434,-3.73202 25.32599,-34.02798 14.89075,-7.54351 13.63173,-9.32414 -15.56343,15.91073 -14.89075,7.54351 z m -41.44487,-3.09725 c 28.7962,-6.34755 -1.26167,6.94633 0,0 z m 32.0384,-3.60975 c 13.27852,-18.89697 25.63718,-13.60766 0,0 z m -23.79615,-2.26444 c 16.02216,-23.38991 15.38878,-1.33033 0,0 z"
       id="path2997"
       inkscape:connector-curvature="0"
       transform="translate(0,28.362183)" />
    <path
       style="fill:#080808;display:inline"
       d="m 547.82025,726.91607 c -2.98478,-17.57672 -55.47918,-87.24446 -18.02686,-49.51496 5.79044,9.50754 27.19479,49.96243 18.02686,49.51496 z m 38.44661,1.32466 c -8.24525,-20.99544 -32.08343,-82.46075 -5.46728,-32.22416 1.40468,4.74927 10.88809,35.57742 5.46728,32.22416 z m 61.1974,-8.47555 c -7.61353,-15.32877 -34.72474,-76.47335 -6.20669,-34.10454 6.79821,1.04662 16.7113,63.96508 6.20669,34.10454 z m -147.05607,-6.58643 c -2.79386,-20.51502 -44.08432,-82.3859 -50.66555,-57.5499 16.99632,20.28243 12.47341,66.26895 -1.80923,18.94809 -8.4096,-37.78819 -41.06831,-26.28009 -37.86675,-28.70776 -25.83495,-32.70906 -74.15583,-36.96589 -102.38364,-68.39252 -44.68627,-24.4653 8.18628,-67.88754 28.04368,-91.91189 25.84441,-32.68487 73.6386,-42.60316 89.39586,-81.30177 14.64737,-27.84854 21.08119,-25.32739 2.75599,3.35728 -17.54853,30.68557 53.55198,-10.20462 71.40551,-16.84093 10.76561,-11.7731 48.67237,-67.3101 23.67065,-21.73079 -18.02288,18.48063 -23.19092,32.68818 4.69467,16.64858 9.4264,-16.51524 44.75924,-83.25047 24.15877,-28.27526 -7.38728,14.60859 -28.66841,43.67992 -1.20287,16.5369 13.6639,-12.99208 54.72942,-85.73079 31.14761,-33.60286 -13.78511,15.0216 -51.18575,67.21397 -9.55662,27.86685 10.61547,-13.79044 45.4041,-63.42436 21.76401,-21.41873 -10.8651,15.39588 -45.21061,44.29737 -3.53202,30.68463 21.09465,-11.64556 44.62363,-47.18937 59.56747,-51.02358 -8.26514,17.3298 -73.86545,59.96616 -18.94488,46.7793 23.19344,-1.24696 55.76653,-53.90485 63.67246,-44.33443 -10.42561,11.23261 -55.10244,59.66144 -14.25393,31.09552 14.5408,-16.16999 48.55793,-47.13338 17.13712,-11.12394 -17.06,15.33115 -22.86868,25.67485 4.7326,18.836 25.45204,0.71055 85.34038,-62.867 39.76047,-14.47724 -43.52622,37.29602 31.2286,-16.50708 28.44705,-10.27956 -14.90805,11.23015 -40.54952,39.93747 -4.34257,23.92615 20.0902,-7.898 77.53115,-40.23048 29.37505,-9.49831 -20.17483,6.8341 -43.95576,30.11333 -6.57787,20.81613 18.54536,-5.61377 80.76425,-50.68873 37.86517,-16.27044 -21.38573,9.05422 -50.53096,40.26635 -9.42716,18.43059 20.50047,-11.13883 65.36775,-44.05841 21.7091,-9.85503 -19.60345,7.53928 -51.31902,37.23418 -7.94481,22.5581 15.9055,-3.91827 92.67745,-35.47221 38.54875,-8.99909 -16.85449,6.37337 -67.38991,28.63074 -19.31224,25.60226 20.40968,10.34427 82.9966,-44.68252 47.98048,-4.6478 15.54944,-4.35693 94.64729,-33.94396 46.86881,-8.09239 -19.08828,11.40459 -71.36902,19.06755 -68.7569,37.86138 19.92283,1.62976 96.53512,-23.25549 42.27351,2.3224 -15.87442,5.10427 -99.00301,19.83684 -40.11562,16.26576 29.96967,1.88192 77.02624,-19.55359 93.88898,-17.56412 -41.92197,23.96576 -88.98817,42.37712 -137.93913,41.6486 29.57009,46.16849 -33.79841,39.78523 -60.8124,61.4194 -34.91329,14.33597 -39.71894,66.47666 -77.25291,84.17394 -62.49408,46.43458 -145.7017,44.14107 -218.71064,31.05353 16.96548,4.31127 37.73195,90.67538 22.54397,59.06695 z m 124.03265,-76.54608 c 58.57419,-13.26568 105.78968,-61.22053 117.30627,-120.5915 8.86023,-31.63344 8.77549,-64.57052 9.60655,-97.11725 -37.7302,-10.35784 -77.0126,-11.99388 -115.83828,-14.71492 6.13849,27.10918 10.74753,45.23881 -9.12525,11.09888 -24.34208,-12.51862 -80.64471,-3.69963 -94.92249,8.7734 30.59897,34.54953 -48.10952,83.65257 -50.22749,42.69752 23.36793,-27.35973 -33.12832,-36.47828 9.16281,-41.27465 20.68655,-5.51044 95.14493,-26.53644 34.5207,-15.51141 -24.60847,5.85643 -71.30891,17.88311 -80.276,28.51983 47.22164,-8.79634 -54.84164,24.38639 -61.43561,45.98006 -12.26115,19.16639 17.66579,85.18946 -7.78238,39.62779 -27.32056,-26.07555 8.9431,-47.68512 22.12418,-61.21917 -37.62261,20.94645 -77.79182,56.29873 -62.6329,103.94042 -0.70267,18.77717 31.71041,21.86401 43.62218,27.44882 15.93723,17.40864 10.16984,-1.86088 37.80485,13.79647 41.69756,14.8881 81.55932,35.54767 127.32683,33.74632 26.95462,0.42967 54.23135,0.0192 80.76603,-5.20061 z M 320.62742,554.71838 c -6.44695,-9.74478 16.65414,-30.92049 -4.78323,-15.20233 -10.96408,7.53461 14.90551,40.10049 4.78323,15.20233 z m 10.01436,-31.93781 c 0.21919,-11.15163 -7.8452,13.21019 0,0 z M 870.2525,426.30859 c 4.20578,-16.30598 -29.50082,17.04705 0,0 z m 20.24933,-20.39438 c 4.50776,-10.3171 -20.54101,13.1649 0,0 z M 624.49813,713.4511 c -6.96151,-15.3494 -39.31904,-66.31522 -11.00561,-29.34071 7.1172,3.03233 25.1399,60.79065 11.00561,29.34071 z m 46.57097,6.84166 c -0.7073,-20.50551 -59.2977,-86.43136 -15.28504,-45.46982 9.91907,11.54708 22.72216,33.32685 15.28504,45.46982 z m 37.01833,-8.32099 c 3.78208,-24.36919 -64.52131,-73.76289 -17.19658,-41.89645 9.8344,9.26493 23.67968,32.48842 17.19658,41.89645 z m 25.77569,-36.35335 c -7.41525,-14.21616 -81.4491,-26.34727 -38.70409,-23.58277 8.18847,-6.50363 70.67354,38.34677 38.70409,23.58277 z M 723.59147,650.0857 c -29.90952,-34.38124 42.92335,24.58807 7.33037,6.80876 l -7.33037,-6.80876 z m 47.34629,-1.59087 c -13.86542,-10.81634 -57.23906,-28.09972 -15.09065,-14.67551 11.18938,0.74996 41.48308,34.83149 15.09065,14.67551 l 0,0 z m 6.27253,-31.09174 c -37.00696,-29.85249 41.44803,15.95753 5.26274,3.1589 l -5.26274,-3.1589 0,0 z m 16.44765,-12.43007 c -20.51609,-3.56139 -46.30419,-6.70682 -8.15566,-9.87883 -45.03333,-29.85672 83.1763,-24.92402 31.53368,-20.75333 -22.88665,-4.98741 -60.17196,9.75122 -19.71635,20.1224 9.59273,9.38498 19.94448,20.8279 -3.66167,10.50976 z m -25.11816,-36.91787 c 17.98567,-16.20175 70.45426,-24.97987 21.04546,-8.53245 -7.14219,2.56242 -13.60227,6.71737 -21.04546,8.53245 z m 30.31178,-33.06194 c 16.85533,-13.39478 58.51914,3.08787 16.96845,2.49625 -5.5527,-0.75408 -11.99901,1.04748 -16.96845,-2.49625 z M 393.5068,428.86721 c 1.83216,-15.4355 1.83216,15.43549 0,0 z m 17.28529,-14.53801 c 17.69957,-29.60069 -12.72525,31.9077 0,0 z m 36.66493,-12.16069 c -2.21587,-23.84068 44.89156,-75.7065 13.41137,-28.52713 -6.564,5.91919 -6.98554,27.47295 -13.41137,28.52713 z m 22.96107,-5.75552 c 1.57715,-16.10843 31.45391,-72.15898 12.28353,-26.16252 -3.53777,2.01757 -7.95776,38.01054 -12.28353,26.16252 z M 457.86776,324.2663 c 30.35217,-13.77031 54.10265,-61.29252 76.45724,-69.88485 -18.0888,31.35838 -58.92646,61.90873 -76.45724,69.88485 z m 30.40618,-2.69668 c 14.45452,-14.6243 -8.31138,14.23197 0,0 z m -44.94827,-5.29866 c 14.45452,-14.62427 -8.31146,14.23199 0,0 z m 103.11666,-13.80715 c 32.50542,-24.89111 51.1996,-62.06462 84.38025,-85.27183 -11.33536,13.25214 -36.01569,40.85431 -20.0636,33.59213 -9.71641,4.96277 -37.93973,46.67708 -41.05101,45.49474 45.90608,-48.35181 -34.10198,16.12379 -23.26564,6.18496 z m -47.5923,8.49338 c 16.61003,-9.30397 56.78826,-55.21396 55.82007,-51.73204 -5.88624,6.37545 -30.73278,30.78593 -10.87179,19.16799 -13.86311,12.18409 -29.12394,23.09503 -44.94828,32.56405 z m 5.14024,-13.64799 c 14.81483,-19.16366 43.22951,-37.85011 10.33072,-7.46041 -1.0356,0.9179 -19.42098,19.44649 -10.33072,7.46041 z m 133.78207,-12.16569 c 14.341,-20.18729 69.27425,-64.13994 25.75324,-21.5714 -8.40106,7.22937 -15.58646,16.83547 -25.75324,21.5714 z M 607.44171,267.3412 c 18.86124,-18.15406 40.236,-52.46545 60.63152,-57.93004 -0.19932,25.36609 -49.26509,74.6917 -51.13783,63.856 16.98142,-13.25898 60.29099,-79.49367 20.63843,-35.57392 -3.19801,8.03438 -59.83745,65.31891 -30.13212,29.64796 z m -47.77929,-3.36404 c 27.34132,-29.85305 6.78827,2.28775 -10.83767,11.7096 3.35297,-4.13888 7.22722,-7.80621 10.83767,-11.7096 z m 129.84649,-9.96529 c 15.47919,-16.52015 28.67014,-31.70764 11.2871,-6.50373 -18.70529,17.64487 -45.79144,46.97539 -11.2871,6.50373 z m -117.08875,8.62728 c 6.34339,-8.66794 50.72613,-51.86364 41.12638,-41.1506 -7.8854,7.24169 -63.90895,74.99636 -41.12638,41.1506 z m 85.2691,-8.30188 c -0.8167,-20.93214 45.04671,-70.67862 51.69247,-63.69702 -3.54479,12.4785 -18.69731,35.04033 -22.12374,25.10757 41.87246,-47.92565 -39.45328,33.38774 -3.59505,8.00822 -4.92636,7.62589 -25.69731,34.07274 -25.97368,30.58123 z m 12.87497,-19.86226 c -13.93434,11.76594 -13.19626,19.51046 0,0 z m 63.60332,20.33703 c 7.51124,-10.40834 47.50609,-50.21068 21.26194,-19.06959 -5.67864,5.20854 -13.94254,23.21851 -21.26194,19.06959 z m -18.53985,-20.6701 c 15.54108,-9.91523 34.29399,-56.46403 13.25182,-23.94272 2.11245,2.88359 -37.37668,28.58082 -8.09664,2.28151 -14.06394,1.08877 33.35432,-49.74472 45.2347,-40.34037 -21.02437,19.52583 -20.68453,33.40938 2.53728,7.80392 9.03389,-7.17151 -41.35533,46.18664 -58.45684,61.81283 -25.41605,26.99199 5.97381,-8.03888 5.52968,-7.61517 z m 22.64645,-43.0515 c 26.1306,-28.67122 -6.27473,0.904 -14.86293,14.13571 4.73307,2.58481 10.67786,-12.26132 14.86293,-14.13571 z M 683.63892,230.896 c 42.01639,-36.39952 -29.135,34.86604 -3.00758,3.59368 l 1.7156,-2.04991 1.29198,-1.54377 0,0 z m 50.25098,6.67364 c 0.29926,-13.37372 19.60601,-23.15054 9.36532,-22.65153 22.52261,-9.34395 60.25186,-67.42544 65.56812,-57.37125 -2.34025,16.1134 -48.57561,47.20783 -12.30229,31.85417 22.39727,-9.93416 47.39332,-13.12357 14.78073,1.11481 -10.8702,11.54397 -44.54453,58.97695 -18.41121,18.18719 27.52391,-42.08697 -49.13626,24.75692 -15.09673,-8.39675 -18.02793,7.62661 -29.11998,25.27373 -43.90394,37.26336 z m 75.83549,-28.59627 c 15.14072,-19.91017 33.76684,-59.33333 36.9767,-19.79898 -8.13836,-7.01721 -62.82636,46.69639 -36.9767,19.79898 z m 24.88872,-1.32466 c 12.90526,-23.88471 40.75146,-23.43256 8.09108,-5.64344 l -7.22989,6.17137 -1.35944,0.66603 0.49825,-1.19396 0,0 z m -29.05809,-4.30732 c 12.46183,-17.3067 26.6342,-19.9533 0,0 z"
       id="path2995"
       inkscape:connector-curvature="0"
       transform="translate(0,28.362183)" />
  </g>
</svg>
